<?xml version="1.0" encoding="utf-8"?>
<!-- Generator: Adobe Illustrator 23.0.0, SVG Export Plug-In . SVG Version: 6.00 Build 0)  -->
<svg version="1.1" id="_x3C_Layer_x3E_" xmlns="http://www.w3.org/2000/svg" xmlns:xlink="http://www.w3.org/1999/xlink" x="0px"
	 y="0px" viewBox="0 0 140 140" style="enable-background:new 0 0 140 140;" xml:space="preserve">
<style type="text/css">
	.st0{fill:#333333;}
</style>
<path class="st0" d="M62.9,67c1.3,0.9,4.5,3.1,5.1,3.8c0.7,0.7,0,1.7,0,1.7l1,0.4c0.2-0.5,1.5-2.2,2.4-3.3c0.8-1,1.5-2.7,1.5-4
	c0.1-4.1-5.4-6-7.9-8.3c-1.2-1.1-0.3-1.8-0.3-1.8L64,54.9C60.8,58.6,57.3,63,62.9,67z M65.7,53.3c3.1,2.8,8.6,5.6,9,7.5
	c0.5,2.4-0.7,3.8-0.7,3.8l0.6,0.5c0.3-0.5,0.7-0.9,1.1-1.4c1.4-1.9,2.8-3.9,4.2-5.9c3.2-4.5,2-8.7-2.8-12.2
	c-2.4-1.7-4.8-3.6-7.3-5.3c-1.4-1.2-0.4-3.4-0.4-3.4l-0.6-0.5c0,0-5.2,6.3-5.7,8.9C62.7,47.8,62.6,50.6,65.7,53.3z M80.4,74.5H57.3
	l-1,2.7h6.3l1.2,3.8H74l1.2-3.8h6.1L80.4,74.5z M61.7,93c0-1.7-0.8-2.7-2.5-3.1c1.2-0.6,1.8-1.8,1.8-3.1c0-2.5-2.4-3.4-5.1-3.4h-5.9
	v13.5h6.7C59.3,96.9,61.7,95.7,61.7,93z M53,85.9h2.9c1.1,0,2.2,0.2,2.2,1.4c0,1-0.8,1.5-1.9,1.5H53V85.9z M52.9,94.4v-3h3.5
	c2.1,0,2.3,0.4,2.3,1.5c0,1.1-1.1,1.4-2.4,1.4H52.9z M90,95.4h-0.2l-0.3,0.8c-0.1,0.2-0.1,0.4-0.2,0.5h0c0-0.2-0.1-0.3-0.1-0.5
	L89,95.4h-0.2L88.6,97h0.2l0-0.7c0-0.2,0-0.5,0-0.7h0c0,0.2,0.1,0.4,0.2,0.6l0.2,0.7h0.1l0.3-0.8c0.1-0.2,0.1-0.4,0.2-0.6h0
	c0,0.2,0,0.5,0,0.7l0,0.7h0.2L90,95.4z M76,96.9h6.7c2.5,0,4.9-1.2,4.9-3.9c0-1.7-0.8-2.7-2.5-3.1c1.2-0.6,1.8-1.8,1.8-3.1
	c0-2.5-2.4-3.4-5.1-3.4H76L76,96.9L76,96.9z M78.9,85.9h2.9c1.1,0,2.2,0.2,2.2,1.4c0,1-0.8,1.5-1.9,1.5h-3.2
	C78.9,88.8,78.9,85.9,78.9,85.9z M78.8,91.4h3.5c2.1,0,2.3,0.4,2.3,1.5c0,1.1-1.1,1.4-2.4,1.4h-3.4L78.8,91.4L78.8,91.4z M88.1,96.1
	c-0.2-0.1-0.3-0.2-0.3-0.3c0-0.1,0.1-0.2,0.3-0.2c0.1,0,0.2,0,0.3,0.1l0.1-0.2c-0.1,0-0.2-0.1-0.3-0.1c-0.3,0-0.5,0.2-0.5,0.4
	c0,0.2,0.1,0.3,0.4,0.4c0.2,0.1,0.3,0.2,0.3,0.3c0,0.2-0.1,0.3-0.3,0.3c-0.1,0-0.3,0-0.3-0.1l0,0.2c0.1,0.1,0.2,0.1,0.4,0.1
	c0.3,0,0.5-0.2,0.5-0.4C88.4,96.3,88.3,96.2,88.1,96.1z M72.3,89.9c1.2-0.6,1.8-1.8,1.8-3.1c0-2.5-2.4-3.4-5.1-3.4h-5.9v13.5h6.7
	c2.5,0,4.9-1.2,4.9-3.9C74.7,91.3,73.9,90.3,72.3,89.9z M66,85.9H69c1.1,0,2.2,0.2,2.2,1.4c0,1-0.8,1.5-1.9,1.5H66V85.9z M69.4,94.4
	H66v-3h3.5c2.1,0,2.3,0.4,2.3,1.5C71.7,94.1,70.6,94.4,69.4,94.4z M78.7,99.6h-2.9v0.3h1.3v3.5h0.3V100h1.3L78.7,99.6L78.7,99.6z
	 M71.1,103.1c-0.2,0-0.4-0.1-0.4-0.4v-1.7h0.7v-0.3h-0.7V100h-0.3v0.7h-0.6v0.3h0.6v1.7c0,0.4,0.2,0.7,0.7,0.7c0.1,0,0.3,0,0.4-0.1
	l0-0.3C71.4,103,71.3,103.1,71.1,103.1z M87.2,103.1c-0.3,0-0.4-0.1-0.4-0.4v-1.8h0.9v-0.3h-0.9v-0.8h-0.4v0.8h-0.7v0.3h0.7v1.8
	c0,0.4,0.2,0.7,0.8,0.7c0.2,0,0.4,0,0.5-0.1l0-0.3C87.5,103.1,87.3,103.1,87.2,103.1z M83.1,100.6h-0.4v1.4c0,0.8-0.5,1.1-1.1,1.1
	c-0.6,0-0.8-0.4-0.8-0.9v-1.6h-0.4v1.6c0,0.6,0.2,1.2,1.2,1.2c0.5,0,0.9-0.3,1.1-0.6h0c0,0.1,0,0.3,0,0.5h0.4c0-0.1,0-0.6,0-0.8
	C83.1,102.6,83.1,100.6,83.1,100.6z M79,101.1c0-0.1,0-0.3,0-0.5h-0.4c0,0.1,0,0.6,0,0.8v2H79v-1.5c0-0.5,0.3-1,1-1c0,0,0.1,0,0.2,0
	l0-0.4c-0.1,0-0.2,0-0.2,0C79.6,100.5,79.2,100.8,79,101.1z M69.3,99.5c-0.1,0-0.3,0.1-0.3,0.2c0,0.1,0.1,0.2,0.3,0.2
	s0.3-0.1,0.3-0.2C69.5,99.6,69.4,99.5,69.3,99.5z M73.7,100.7c-0.4,0-0.8,0.2-0.9,0.5h0v-2.1h-0.3v4.2h0.3V102c0-0.7,0.4-1,0.9-1
	c0.5,0,0.7,0.4,0.7,0.8v1.5h0.3v-1.5C74.6,101.2,74.5,100.7,73.7,100.7z M83.8,101.3c0-0.3,0.4-0.4,0.7-0.4c0.4,0,0.6,0.1,0.7,0.4
	l0.4-0.2c-0.2-0.4-0.6-0.5-1.1-0.5c-0.5,0-1.1,0.3-1.1,0.8c0,1.1,1.9,0.5,1.9,1.3c0,0.3-0.4,0.5-0.7,0.5c-0.4,0-0.7-0.2-0.9-0.5
	l-0.4,0.2c0.2,0.4,0.7,0.6,1.3,0.6c0.6,0,1.1-0.3,1.1-0.9C85.7,101.5,83.8,102,83.8,101.3z M61.3,103.1c-0.2,0-0.4-0.1-0.4-0.4v-1.8
	h0.8v-0.3H61v-0.8h-0.4v0.8H60v0.3h0.6v1.8c0,0.4,0.2,0.7,0.7,0.7c0.1,0,0.3,0,0.5-0.1l0-0.3C61.6,103,61.5,103.1,61.3,103.1z
	 M58.6,101c0-0.1,0-0.3,0-0.5h-0.4c0,0.1,0,0.6,0,0.8v2h0.4v-1.5c0-0.5,0.3-1,0.9-1c0,0,0.1,0,0.1,0l0-0.4c-0.1,0-0.1,0-0.2,0
	C59.1,100.5,58.8,100.7,58.6,101z M67.4,103.1L67.4,103.1l-1.1-3.4h-0.5l-1,3.4h0l-1-3.4h-0.4l1.2,3.8H65l1-3.4h0l1,3.4h0.5l1.2-3.8
	h-0.4L67.4,103.1z M57.4,101.5c0-0.7-0.4-1-1.1-1c-0.4,0-0.8,0.1-1.1,0.4l0.2,0.2c0.3-0.2,0.5-0.3,0.9-0.3c0.5,0,0.8,0.2,0.8,0.7
	v0.2h-0.4c-0.6,0-1.6,0.1-1.6,0.9c0,0.6,0.5,0.8,1,0.8c0.5,0,0.8-0.2,1-0.5h0c0,0.2,0,0.3,0,0.4h0.3c0-0.3-0.1-0.6-0.1-1.2
	C57.4,102.1,57.4,101.5,57.4,101.5z M57.1,102.1c0,0.5-0.2,1-1,1c-0.3,0-0.6-0.2-0.6-0.5c0-0.5,0.6-0.6,1.2-0.6h0.4V102.1z
	 M50.5,100.5c0-0.5,0.5-0.7,1-0.7c0.4,0,0.7,0.1,0.9,0.4l0.4-0.3c-0.4-0.3-0.8-0.5-1.3-0.5c-0.7,0-1.5,0.3-1.5,1.1
	c0,1.4,2.3,0.8,2.3,1.9c0,0.4-0.5,0.7-1,0.7c-0.5,0-0.8-0.2-1-0.5l-0.4,0.3c0.3,0.4,0.9,0.6,1.4,0.6c0.7,0,1.5-0.4,1.5-1.1
	C52.8,101,50.5,101.5,50.5,100.5z M54.2,103.1c-0.2,0-0.4-0.1-0.4-0.4v-1.8h0.8v-0.3h-0.8v-0.8h-0.4v0.8h-0.6v0.3h0.6v1.8
	c0,0.4,0.2,0.7,0.7,0.7c0.1,0,0.3,0,0.5-0.1l0-0.3C54.5,103,54.3,103.1,54.2,103.1z M69.1,103.3h0.3v-2.5h-0.3V103.3z"/>
</svg>
