<?xml version="1.0" encoding="utf-8"?>
<!-- Generator: Adobe Illustrator 23.0.0, SVG Export Plug-In . SVG Version: 6.00 Build 0)  -->
<svg version="1.1" id="_x3C_Layer_x3E_" xmlns="http://www.w3.org/2000/svg" xmlns:xlink="http://www.w3.org/1999/xlink" x="0px"
	 y="0px" viewBox="0 0 140 140" style="enable-background:new 0 0 140 140;" xml:space="preserve">
<style type="text/css">
	.st0{fill-rule:evenodd;clip-rule:evenodd;fill:#333333;}
	.st1{clip-path:url(#SVGID_3_);}
</style>
<g>
	<path class="st0" d="M40.8,95.8v-5.2H43l0.3,0l0.3,0.1l0.3,0.1l0.2,0.2l0.2,0.2l0.1,0.2l0.1,0.3l0,0.3l0,0.1l0,0.2l0,0.1l-0.1,0.2
		l-0.1,0.1l-0.1,0.1l-0.1,0.1L44,93l0.2,0.1l0.1,0.1l0.1,0.1l0.1,0.1l0.1,0.2l0,0.2l0,0.3l0,0.4l-0.1,0.3l-0.1,0.3l-0.2,0.2L44,95.6
		l-0.3,0.1l-0.4,0.1l-0.4,0L40.8,95.8L40.8,95.8z M41.7,94.9L41.7,94.9H43h0.2l0.2,0l0.1-0.1l0.1-0.1l0.1-0.1l0.1-0.1l0-0.1l0-0.2
		l0-0.2l0-0.2l-0.1-0.1l-0.1-0.1l-0.1-0.1l-0.1-0.1l-0.1,0H43h-1.2V94.9L41.7,94.9z M41.7,92.6L41.7,92.6H43l0.2,0l0.1,0l0.1-0.1
		l0.1-0.1l0.1-0.1l0-0.1l0-0.2l0-0.1l0-0.1l0-0.1l-0.1-0.1l-0.1-0.1l-0.1,0l-0.3,0h-1.2V92.6z"/>
	<path class="st0" d="M43,90.6h-2.2v5.2H43l0.4,0l0.4-0.1l0.3-0.1l0.3-0.2l0.2-0.2l0.1-0.3l0.1-0.3l0-0.4l0-0.3l0-0.2v0l-0.1-0.2
		l-0.1-0.1l-0.1-0.1h0l-0.1-0.1L44,93l0.1-0.1h0l0.1-0.1l0.1-0.1l0.1-0.1v0l0.1-0.2l0-0.1l0-0.2l0-0.1l0-0.3l-0.1-0.3l-0.1-0.2
		L44.2,91l-0.2-0.2l-0.3-0.1l-0.3-0.1L43,90.6L43,90.6z M40.8,95.8L40.8,95.8v-5.2H43l0.3,0l0.3,0.1l0.3,0.1l0.2,0.2l0.2,0.2
		l0.1,0.2l0.1,0.3l0,0.3l0,0.1l0,0.2l0,0.1l-0.1,0.2l-0.1,0.1l-0.1,0.1l-0.1,0.1L44,93l0.2,0.1l0.1,0.1l0.1,0.1l0.1,0.1l0.1,0.2
		l0,0.2l0,0.3l0,0.4l-0.1,0.3l-0.1,0.3l-0.2,0.2L44,95.6l-0.3,0.1l-0.4,0.1l-0.4,0H40.8L40.8,95.8z M42.9,91.5l0.3,0l0.1,0l0.1,0.1
		l0.1,0.1l0,0.1l0,0.1l0,0.1l0,0.2l0,0.1l-0.1,0.1l-0.1,0.1l-0.1,0.1l-0.1,0l-0.2,0h-1.2v-1.1L42.9,91.5L42.9,91.5L42.9,91.5z
		 M41.7,92.6L41.7,92.6v-1.1h1.2l0.3,0l0.1,0l0.1,0.1l0.1,0.1l0,0.1l0,0.1l0,0.1l0,0.2l0,0.1l-0.1,0.1l-0.1,0.1l-0.1,0.1l-0.1,0
		l-0.2,0H41.7L41.7,92.6z M43.2,93.4l0.1,0l0.1,0.1l0.1,0.1l0.1,0.1l0.1,0.1l0,0.2l0,0.2l0,0.2l0,0.1l-0.1,0.1l-0.1,0.1l-0.1,0.1
		l-0.1,0.1l-0.2,0H43h-1.2v-1.5H43H43.2L43.2,93.4L43.2,93.4z M41.7,94.9L41.7,94.9v-1.5H43h0.2l0.1,0l0.1,0.1l0.1,0.1l0.1,0.1
		l0.1,0.1l0,0.2l0,0.2l0,0.2l0,0.1l-0.1,0.1l-0.1,0.1l-0.1,0.1l-0.1,0.1l-0.2,0H43L41.7,94.9L41.7,94.9z"/>
	<path class="st0" d="M43,90.6h-2.2v5.2H43l0.4,0l0.4-0.1l0.3-0.1l0.3-0.2l0.2-0.2l0.1-0.3l0.1-0.3l0-0.4l0-0.3l0-0.2l-0.1-0.2
		l-0.1-0.1l-0.1-0.1l-0.1-0.1L44,93l0.1-0.1l0.1-0.1l0.1-0.1l0.1-0.1l0.1-0.2l0-0.1l0-0.2l0-0.1l0-0.3l-0.1-0.3l-0.1-0.2L44.2,91
		l-0.2-0.2l-0.3-0.1l-0.3-0.1L43,90.6L43,90.6z M40.8,95.8L40.8,95.8v-5.2H43l0.3,0l0.3,0.1l0.3,0.1l0.2,0.2l0.2,0.2l0.1,0.2
		l0.1,0.3l0,0.3l0,0.1l0,0.2l0,0.1l-0.1,0.2l-0.1,0.1l-0.1,0.1l-0.1,0.1L44,93l0,0l0.2,0.1l0.1,0.1l0.1,0.1l0.1,0.1l0.1,0.2l0,0.2
		l0,0.3l0,0.4l-0.1,0.3l-0.1,0.3l-0.2,0.2L44,95.6l-0.3,0.1l-0.4,0.1l-0.4,0L40.8,95.8L40.8,95.8z M42.9,91.5l0.3,0l0.1,0l0.1,0.1v0
		l0.1,0.1l0,0.1l0,0.1l0,0.1l0,0.2l0,0.1l-0.1,0.1l-0.1,0.1l-0.1,0.1h0l-0.1,0l-0.2,0h-1.3v-1.1L42.9,91.5L42.9,91.5L42.9,91.5z
		 M41.7,92.6L41.7,92.6v-1.1h1.2l0.3,0l0.1,0l0.1,0.1l0.1,0.1l0,0.1l0,0.1l0,0.1l0,0.2l0,0.1l-0.1,0.1l-0.1,0.1l-0.1,0.1l-0.1,0
		l-0.2,0L41.7,92.6L41.7,92.6z M43.2,93.4l0.1,0h0l0.1,0.1l0.1,0.1v0l0.1,0.1l0.1,0.1l0,0.2l0,0.2l0,0.2l0,0.1l-0.1,0.1l-0.1,0.1
		l-0.1,0.1l-0.1,0.1l-0.2,0h0H43h-1.3v-1.5H43H43.2L43.2,93.4L43.2,93.4z M41.7,94.9L41.7,94.9v-1.5H43h0.2l0.1,0l0.1,0.1l0.1,0.1
		l0.1,0.1l0.1,0.1l0,0.2l0,0.2l0,0.2l0,0.1l-0.1,0.1l-0.1,0.1l-0.1,0.1l-0.1,0.1l-0.2,0H43H41.7z"/>
	<polygon class="st0" points="46.7,95.9 46.5,95.8 46.3,95.8 46.1,95.7 46,95.6 45.9,95.5 45.7,95.3 45.6,95 45.5,94.7 45.5,94.4 
		45.5,94.2 45.5,92 46.4,92 46.4,94.1 46.4,94.3 46.4,94.5 46.5,94.7 46.6,94.8 46.7,94.9 46.8,95 46.9,95 47.1,95 47.2,95 47.4,95 
		47.5,94.9 47.6,94.8 47.7,94.7 47.7,94.5 47.8,94.3 47.8,94.1 47.8,92 48.7,92 48.7,95.8 47.8,95.8 47.8,95.5 47.6,95.7 47.4,95.8 
		47.1,95.9 46.9,95.9 	"/>
	<path class="st0" d="M48.7,92h-0.9v2.1l0,0.2l0,0.2l0,0.1l-0.1,0.1l-0.1,0.1L47.4,95L47.2,95h-0.1h-0.2L46.8,95l-0.1-0.1l-0.1-0.1
		l-0.1-0.1l-0.1-0.1l0-0.2v-0.2V92h-1v2.2v0.3l0,0.3l0.1,0.3l0.1,0.3l0.2,0.2l0.1,0.1l0,0l0.1,0.1l0.2,0.1l0.2,0l0.2,0l0.2,0h0
		l0.3,0l0.3-0.1l0.2-0.1l0.2-0.2v0.3v0h0.9V92L48.7,92z M46.9,95L46.9,95h0.2h0.1l0.2-0.1l0.1-0.1l0.1-0.1l0.1-0.1l0-0.1l0-0.2
		l0-0.2V92h0.9v3.8h-0.9v-0.3l-0.2,0.2l-0.2,0.1l-0.3,0.1l-0.3,0l-0.2,0l-0.2,0l-0.2,0l-0.2-0.1L46,95.6l-0.1-0.1l-0.2-0.2L45.6,95
		l-0.1-0.3l0-0.3v-0.3V92h0.9v2.1v0.2l0,0.2l0.1,0.1l0.1,0.1l0.1,0.1l0.1,0.1L46.9,95z"/>
	<path class="st0" d="M48.7,92h-0.9v2.1l0,0.2l0,0.2l0,0.1l-0.1,0.1l-0.1,0.1L47.4,95L47.2,95h-0.1h-0.2L46.8,95l-0.1-0.1l-0.1-0.1
		l-0.1-0.1l-0.1-0.1l0-0.2v-0.2V92h-0.9v2.2v0.3l0,0.3l0.1,0.3l0.1,0.3l0.2,0.2l0.1,0.1l0.1,0.1l0.2,0.1l0.2,0l0.2,0l0.2,0l0.3,0
		l0.3-0.1l0.2-0.1l0.2-0.2v0.3h0.9V92L48.7,92z M46.9,95L46.9,95h0.2h0.1l0.2-0.1l0.1-0.1l0.1-0.1l0.1-0.1h0l0-0.1l0-0.2l0-0.2V92
		h0.9v3.8h-0.9v-0.3v0l-0.2,0.2l-0.2,0.1l-0.3,0.1l-0.3,0l-0.2,0l-0.2,0l-0.2,0l-0.2-0.1L46,95.6l-0.1-0.1l-0.2-0.2L45.6,95
		l-0.1-0.3l0-0.3v-0.3V92h0.9v2.1v0.2v0l0,0.2l0.1,0.1l0.1,0.1l0.1,0.1l0.1,0.1L46.9,95L46.9,95z M46.9,95.9L46.9,95.9L46.9,95.9
		L46.9,95.9z"/>
	<polygon class="st0" points="61.2,95.8 61.2,93.7 61.2,93.5 61.1,93.3 61.1,93.1 61,93 60.9,92.9 60.8,92.8 60.6,92.8 60.5,92.8 
		60.3,92.8 60.2,92.8 60.1,92.9 60,93 59.9,93.1 59.8,93.3 59.8,93.5 59.8,93.7 59.8,95.8 58.8,95.8 58.8,92 59.8,92 59.8,92.3 
		60,92.1 60.2,92 60.4,91.9 60.7,91.9 61,91.9 61.3,92 61.6,92.2 61.8,92.4 61.9,92.6 62,92.9 62.1,93.2 62.1,93.7 62.1,95.8 	"/>
	<polygon class="st0" points="61,91.9 60.7,91.9 60.4,91.9 60.2,92 60,92.1 59.8,92.3 59.8,92 59.8,92 58.8,92 58.8,95.8 59.8,95.8 
		59.8,93.7 59.8,93.7 59.8,95.8 58.8,95.8 58.8,92 59.8,92 59.8,92.3 60,92.1 60.2,92 60.4,91.9 60.7,91.9 61,91.9 61.3,92 
		61.5,92.2 61.8,92.4 61.9,92.6 62,92.9 62.1,93.2 62.1,93.7 62.1,95.8 61.2,95.8 61.2,93.7 61.2,93.5 61.1,93.3 61.1,93.1 61,93 
		60.9,92.9 60.8,92.8 60.6,92.8 60.5,92.8 60.3,92.8 60.2,92.8 60.1,92.9 60,93 59.9,93.1 59.8,93.3 59.8,93.5 59.8,93.7 59.8,93.7 
		59.8,93.5 59.8,93.3 59.9,93.1 60,93 60.1,92.9 60.2,92.8 60.3,92.8 60.5,92.8 60.6,92.8 60.8,92.8 60.9,92.9 61,93 61.1,93.1 
		61.1,93.3 61.2,93.5 61.2,93.7 61.2,95.8 62.1,95.8 62.1,93.7 62.1,93.2 62,92.9 61.9,92.6 61.8,92.4 61.6,92.2 61.3,92 	"/>
	<polygon class="st0" points="61,91.9 60.7,91.9 60.4,91.9 60.2,92 60,92.1 59.8,92.3 59.8,92 58.8,92 58.8,95.8 59.8,95.8 
		59.8,93.7 59.8,93.7 59.8,93.7 59.8,95.8 58.8,95.8 58.8,92 59.8,92 59.8,92.3 59.8,92.4 60,92.1 60.2,92 60.4,91.9 60.7,91.9 
		61,91.9 61.3,92 61.5,92.2 61.7,92.4 61.9,92.6 62,92.9 62.1,93.2 62.1,93.7 62.1,95.8 61.2,95.8 61.2,93.7 61.2,93.5 61.2,93.3 
		61.1,93.3 61.1,93.1 61,93 61,93 60.9,92.9 60.8,92.8 60.6,92.8 60.5,92.8 60.3,92.8 60.2,92.8 60.2,92.8 60.1,92.9 60,93 
		59.9,93.1 59.9,93.1 59.8,93.3 59.8,93.5 59.8,93.5 59.8,93.7 59.8,93.7 59.8,93.5 59.8,93.3 59.9,93.1 60,93 60.1,92.9 60.2,92.8 
		60.3,92.8 60.5,92.8 60.6,92.8 60.8,92.8 60.9,92.9 61,93 61.1,93.1 61.1,93.3 61.2,93.5 61.2,93.7 61.2,95.8 62.1,95.8 62.1,93.7 
		62.1,93.2 62,92.9 61.9,92.6 61.8,92.4 61.5,92.2 61.3,92 	"/>
	<rect x="49.6" y="92" class="st0" width="0.9" height="3.8"/>
	<path class="st0" d="M49.6,92h0.9v3.8h-0.9V92L49.6,92z M50.5,92L50.5,92L50.5,92L50.5,92L50.5,92z M50.5,92L50.5,92h-0.9v3.8h1
		L50.5,92L50.5,92z"/>
	<path class="st0" d="M49.6,92h0.9v3.8h-0.9V92L49.6,92z M49.6,95.8L49.6,95.8h0.9V92h-0.9V95.8z"/>
	<polygon class="st0" points="51.3,90.9 51.3,95.8 52.3,95.8 52.3,90.4 	"/>
	<path class="st0" d="M51.3,90.9l0.9-0.5v5.4h-0.9V90.9L51.3,90.9z M51.3,90.9L51.3,90.9v4.9h0h0.9v-5.4L51.3,90.9z"/>
	<path class="st0" d="M51.3,95.8L51.3,95.8L51.3,95.8L51.3,95.8z M51.3,90.9L51.3,90.9l0.9-0.5v5.4h-0.9V90.9L51.3,90.9z M51.3,90.9
		L51.3,90.9v4.9h0.9v-5.4L51.3,90.9z"/>
	<path class="st0" d="M54.1,95.9l-0.3-0.1l-0.2-0.2l-0.2-0.2l-0.2-0.3L53,94.7L53,94.3l0-0.4l0-0.4L53,93l0.1-0.3l0.2-0.3l0.2-0.2
		l0.3-0.2l0.3-0.1l0.3,0h0.2l0.2,0.1l0.2,0.1l0.2,0.2v-1.4l0.9-0.5v5.4h-0.9v-0.3l-0.2,0.1l-0.2,0.1l-0.2,0.1l-0.2,0L54.1,95.9
		L54.1,95.9z M54.5,92.8L54.5,92.8l-0.1,0l-0.1,0L54.1,93L54,93.1L54,93.3l0,0.2l0,0.3l0,0.3l0,0.3l0.1,0.2l0.1,0.1l0.1,0.1l0.1,0.1
		l0.1,0.1h0.1l0.2,0l0.2-0.1l0.1-0.1l0.1-0.1v-1.5L55.2,93L55,92.9l-0.2-0.1l-0.2,0L54.5,92.8z"/>
	<path class="st0" d="M56.2,90.4l-1,0.5v1.4l-0.2-0.2L54.9,92l-0.2-0.1h-0.2l-0.3,0l-0.3,0.1l-0.3,0.2l-0.2,0.2l-0.2,0.3L53,93
		L53,93.4l0,0.4l0,0.4l0.1,0.4l0.1,0.3l0.2,0.3l0.2,0.2l0.2,0.2l0.3,0.1l0.3,0l0.2,0l0.2-0.1v0l0.2-0.1l0.2-0.1v0.3v0h1L56.2,90.4
		L56.2,90.4z M55.3,92.3L55.3,92.3v-1.4l0.9-0.5v5.4h-0.9v-0.3l-0.2,0.1l-0.2,0.1l-0.2,0.1l-0.2,0l-0.3,0l-0.3-0.1l-0.2-0.2
		l-0.2-0.2l-0.2-0.3L53,94.7L53,94.3l0-0.4l0-0.4L53,93l0.1-0.3l0.2-0.3l0.2-0.2l0.3-0.2l0.3-0.1l0.3,0h0.2l0.2,0.1l0.2,0.1
		L55.3,92.3L55.3,92.3z M54.6,92.8l0.2,0l0.2,0.1l0.1,0.1l0.1,0.1v1.5l-0.1,0.1L55,94.9L54.8,95l-0.2,0h-0.1L54.4,95l-0.1-0.1
		l-0.1-0.1L54,94.7L54,94.5l0-0.3l0-0.3l0-0.3l0-0.2l0.1-0.2l0.1-0.1l0.1-0.1l0.1,0l0.1,0L54.6,92.8L54.6,92.8L54.6,92.8z M54.5,95
		L54.5,95L54.4,95l-0.1-0.1l-0.1-0.1L54,94.7L54,94.5l0-0.3l0-0.3l0-0.3l0-0.2l0.1-0.2l0.1-0.1l0.1-0.1l0.1,0l0.1,0l0.1,0l0.2,0
		l0.2,0.1l0.1,0.1l0.1,0.1v1.5l-0.1,0.1L55,94.9L54.8,95l-0.2,0L54.5,95L54.5,95z"/>
	<path class="st0" d="M56.2,90.4l-0.9,0.5v1.4l-0.2-0.2L54.9,92l-0.2-0.1h-0.2l-0.3,0l-0.3,0.1l-0.3,0.2l-0.2,0.2l-0.2,0.3L53,93
		L53,93.4l0,0.4l0,0.4l0.1,0.4l0.1,0.3l0.2,0.3l0.2,0.2l0.2,0.2l0.3,0.1l0.3,0l0.2,0l0.2-0.1l0.2-0.1l0.2-0.1v0.3h0.9L56.2,90.4
		L56.2,90.4z M55.3,92.3L55.3,92.3v-1.4l0.9-0.5v5.4h-0.9v-0.3v0l-0.2,0.1l-0.2,0.1l-0.2,0.1l-0.2,0l-0.3,0l-0.3-0.1l-0.2-0.2
		l-0.2-0.2l-0.2-0.3l-0.1-0.3L53,94.3l0-0.4l0-0.4l0.1-0.4l0.1-0.3l0.2-0.3l0.2-0.2l0.3-0.2l0.3-0.1l0.3,0h0.2l0.2,0.1l0.2,0.1
		L55.3,92.3L55.3,92.3L55.3,92.3z M55.3,92.3L55.3,92.3L55.3,92.3L55.3,92.3L55.3,92.3z M54.6,92.8l0.2,0l0.2,0.1v0l0.1,0.1l0.1,0.1
		v1.5v0l-0.1,0.1L55,94.9L54.8,95l-0.2,0h-0.1L54.4,95l-0.1-0.1l-0.1-0.1L54,94.7v0l-0.1-0.2v0l0-0.3l0-0.3l0-0.3l0-0.2v0l0.1-0.2
		l0.1-0.1l0.1-0.1l0.1,0l0.1,0L54.6,92.8L54.6,92.8L54.6,92.8z M54.5,95L54.5,95L54.4,95l-0.1-0.1l-0.1-0.1L54,94.7L54,94.5l0-0.3
		l0-0.3l0-0.3l0-0.2l0.1-0.2l0.1-0.1l0.1-0.1l0.1,0l0.1,0l0.1,0l0.2,0l0.2,0.1l0.1,0.1l0.1,0.1v1.5l-0.1,0.1L55,94.9L54.8,95l-0.2,0
		L54.5,95L54.5,95z"/>
	<path class="st0" d="M75.5,95.9l-0.2-0.1l-0.2-0.1l-0.2-0.1v0.3H74V91l0.9-0.5v1.7l0.2-0.1l0.2-0.1l0.2-0.1h0.2l0.3,0l0.3,0.1
		l0.3,0.2l0.2,0.2l0.2,0.3l0.1,0.3l0.1,0.4l0,0.4l0,0.4l-0.1,0.4L77,95.1l-0.2,0.3l-0.2,0.2l-0.2,0.2l-0.3,0.1l-0.3,0L75.5,95.9
		L75.5,95.9z M75.4,92.8L75.4,92.8l-0.2,0.1L75.1,93l-0.1,0.2v1.5l0.1,0.1l0.1,0.1l0.2,0.1l0.1,0h0.1l0.2,0l0.1,0l0.1-0.1l0.1-0.1
		l0.1-0.2l0-0.2l0-0.2l0-0.3l0-0.3l0-0.2l-0.1-0.2L76.1,93L76,92.9l-0.1-0.1l-0.1,0l-0.1,0L75.4,92.8z"/>
	<path class="st0" d="M74.9,90.5L74,91v4.8h1v-0.3l0.2,0.1h0l0.2,0.1l0.2,0.1l0.2,0h0l0.3,0l0.3-0.1l0.2-0.2l0.2-0.2l0.2-0.3
		l0.1-0.3l0.1-0.4l0-0.4l0-0.4L77.2,93L77,92.7l-0.2-0.3l-0.2-0.2l-0.3-0.2L76.1,92l-0.3,0h-0.2h0L75.3,92l-0.2,0.1l-0.2,0.1
		L74.9,90.5L74.9,90.5z M74,95.8L74,95.8V91l0.9-0.5v1.7l0.2-0.1l0.2-0.1l0.2-0.1h0.2l0.3,0l0.3,0.1l0.3,0.2l0.2,0.2l0.2,0.3
		l0.1,0.3l0.1,0.4l0,0.4l0,0.4l-0.1,0.4L77,95.1l-0.2,0.3l-0.2,0.2l-0.2,0.2l-0.3,0.1l-0.3,0l-0.2,0l-0.2-0.1l-0.2-0.1l-0.2-0.1v0.3
		L74,95.8L74,95.8z M75.6,92.8L75.6,92.8l0.2,0.1l0.1,0.1l0.1,0.1l0.1,0.2l0.1,0.2l0,0.2l0,0.3l0,0.3l0,0.2l0,0.2l-0.1,0.2L76,94.9
		L75.9,95l-0.1,0l-0.2,0h-0.1l-0.1,0l-0.2-0.1L75,94.8l-0.1-0.1v-1.5l0.1-0.2l0.1-0.1l0.2-0.1L75.6,92.8L75.6,92.8L75.6,92.8
		L75.6,92.8L75.6,92.8z M75.5,95L75.5,95L75.5,95l-0.3-0.1L75,94.8l-0.1-0.1v-1.5l0.1-0.2l0.1-0.1l0.2-0.1l0.2,0l0.1,0l0.1,0
		l0.1,0.1l0.1,0.1l0.1,0.2l0.1,0.2l0,0.2l0,0.3l0,0.3l0,0.2l0,0.2l-0.1,0.2L76,94.9L75.9,95l-0.1,0l-0.2,0L75.5,95L75.5,95z"/>
	<path class="st0" d="M74.9,90.5L74,91v4.8h0.9v-0.3l0.2,0.1l0.2,0.1l0.2,0.1l0.2,0l0.3,0l0.3-0.1l0.2-0.2l0.2-0.2l0.2-0.3l0.1-0.3
		l0.1-0.4l0-0.4l0-0.4L77.1,93L77,92.7l-0.2-0.3l-0.2-0.2l-0.3-0.2L76.1,92l-0.3,0v0v0h-0.2L75.3,92l-0.2,0.1l-0.2,0.1V90.5
		L74.9,90.5z M74,95.8L74,95.8V91l0.9-0.5v1.7l0.2-0.1l0.2-0.1l0.2-0.1h0.2l0.3,0l0.3,0.1l0.3,0.2l0.2,0.2l0.2,0.3l0.1,0.3l0.1,0.4
		l0,0.4l0,0.4l-0.1,0.4L77,95.1l-0.2,0.3l-0.2,0.2l-0.2,0.2l-0.3,0.1l-0.3,0l-0.2,0l-0.2-0.1l-0.2-0.1l-0.2-0.1l0,0v0.3L74,95.8
		L74,95.8z M75.6,92.8L75.6,92.8l0.1,0l0.1,0l0.1,0.1v0l0.1,0.1l0.1,0.2l0.1,0.2l0,0.2l0,0.3l0,0.3l0,0.2l0,0.2l-0.1,0.2h0L76,94.9
		L75.9,95l-0.1,0l-0.2,0h-0.1l-0.1,0l-0.2-0.1h0L75,94.8l-0.1-0.1v-1.5v0l0.1-0.2l0.1-0.1l0.2-0.1L75.6,92.8L75.6,92.8L75.6,92.8
		L75.6,92.8z M75.6,92.8L75.6,92.8L75.6,92.8l0.2,0.1l0.1,0.1l0.1,0.1l0.1,0.2l0.1,0.2l0,0.2l0,0.3l0,0.3l0,0.2l0,0.2l-0.1,0.2
		L76,94.9L75.9,95l-0.1,0l-0.2,0h-0.1l-0.1,0l-0.2-0.1L75,94.8l-0.1-0.1v-1.5l0.1-0.2l0.1-0.1l0.2-0.1L75.6,92.8z"/>
	<path class="st0" d="M63.8,96.6L63.8,96.6l0.4,0l0.3-0.1l0.2-0.1l0.2-0.1l0.1-0.2l0.1-0.2v-0.3v-0.1l-0.2,0.1l-0.2,0.1l-0.2,0.1
		l-0.3,0l-0.3,0l-0.3-0.1l-0.2-0.2l-0.2-0.2L63,95.1l-0.1-0.3l-0.1-0.4v-0.5v-0.4l0.1-0.4l0.1-0.3l0.2-0.3l0.2-0.2l0.3-0.1l0.3-0.1
		l0.3,0h0.2l0.2,0.1l0.2,0.1l0.2,0.1V92H66v3.5l0,0.4l-0.1,0.4l-0.2,0.3l-0.1,0.1l-0.1,0.1L65.4,97l-0.1,0.1L65,97.2l-0.4,0.1
		l-0.4,0L63.8,96.6L63.8,96.6z M64.2,92.8L64.2,92.8L64,92.9L63.9,93l-0.1,0.1l-0.1,0.2l0,0.2l0,0.3l0,0.3l0,0.2l0.1,0.2l0.1,0.1
		l0.1,0.1l0.1,0.1l0.1,0.1h0.1l0.2,0l0.2-0.1l0.2-0.1l0.1-0.1v-1.5L65,93l-0.1-0.1l-0.2-0.1l-0.2,0h-0.1L64.2,92.8z"/>
	<path class="st0" d="M64.5,91.9h-0.2l-0.3,0l-0.3,0.1l-0.3,0.1l-0.2,0.2L63,92.7L62.9,93l-0.1,0.4v0.4v0.5l0.1,0.4l0.1,0.3l0.2,0.3
		l0.2,0.2l0.2,0.2l0.3,0.1l0.3,0l0.3,0l0.2-0.1v0l0.2-0.1l0.2-0.1v0.1v0.3L65,96.1l-0.1,0.2l-0.2,0.1l-0.2,0.1l-0.3,0.1l-0.4,0h0h0
		l0.3,0.8l0.4,0l0.4-0.1l0.3-0.1l0.1-0.1l0.1-0.1l0.1-0.1v0l0.1-0.1l0.2-0.3l0.1-0.4l0-0.4V92h-1v0.3l-0.2-0.1v0L64.7,92L64.5,91.9
		L64.5,91.9z M64.2,95.9L64.2,95.9l-0.3,0l-0.3-0.1l-0.2-0.2l-0.2-0.2L63,95.1l-0.1-0.3l-0.1-0.4v-0.5v-0.4l0.1-0.4l0.1-0.3l0.2-0.3
		l0.2-0.2l0.3-0.1l0.3-0.1l0.3,0h0.2l0.2,0.1l0.2,0.1l0.2,0.1V92H66v3.5l0,0.4l-0.1,0.4l-0.2,0.3l-0.1,0.1l-0.1,0.1L65.4,97
		l-0.1,0.1L65,97.2l-0.4,0.1l-0.4,0l-0.3-0.7h0l0.4,0l0.3-0.1l0.2-0.1l0.2-0.1l0.1-0.2l0.1-0.2v-0.3v-0.1l-0.2,0.1l-0.2,0.1
		l-0.2,0.1L64.2,95.9L64.2,95.9z M64.4,92.8l0.2,0l0.2,0.1L65,93l0.1,0.1h0h0v1.5L65,94.8l-0.2,0.1L64.6,95l-0.2,0h-0.1L64.2,95
		L64,94.9l-0.1-0.1l-0.1-0.1l-0.1-0.2l0-0.2l0-0.3l0-0.3l0-0.2l0.1-0.2l0.1-0.1l0.1-0.1l0.1-0.1l0.1,0L64.4,92.8L64.4,92.8
		L64.4,92.8z M64.3,95L64.3,95L64.2,95L64,94.9l-0.1-0.1l-0.1-0.1l-0.1-0.2l0-0.2l0-0.3l0-0.3l0-0.2l0.1-0.2l0.1-0.1l0.1-0.1
		l0.1-0.1l0.1,0h0.1l0.2,0l0.2,0.1L65,93l0.1,0.1v1.5L65,94.8l-0.2,0.1L64.6,95L64.3,95L64.3,95L64.3,95z"/>
	<path class="st0" d="M64.5,91.9h-0.2l-0.3,0l-0.3,0.1l-0.3,0.1l-0.2,0.2L63,92.7L62.9,93l-0.1,0.4v0.4v0.5l0.1,0.4l0.1,0.3l0.2,0.3
		l0.2,0.2l0.2,0.2l0.3,0.1l0.3,0l0.3,0l0.2-0.1l0.2-0.1l0.2-0.1v0.1v0.3L65,96.1l-0.1,0.2l-0.2,0.1l-0.2,0.1l-0.3,0.1l-0.4,0h0
		l0.3,0.7l0.4,0l0.4-0.1l0.3-0.1l0.1-0.1l0.1-0.1l0.1-0.1l0.1-0.1l0.2-0.3l0.1-0.4l0-0.4V92h-0.9v0.3l-0.2-0.1L64.7,92L64.5,91.9
		L64.5,91.9z M64.2,95.9L64.2,95.9l-0.3,0l-0.3-0.1l-0.2-0.2l-0.2-0.2L63,95.1l-0.1-0.3l-0.1-0.4v-0.5v-0.4l0.1-0.4l0.1-0.3l0.2-0.3
		l0.2-0.2l0.3-0.1l0.3-0.1l0.3,0h0.2l0.2,0.1l0.2,0.1l0.2,0.1l0,0v0V92H66v3.5l0,0.4l-0.1,0.4l-0.2,0.3l-0.1,0.1l-0.1,0.1L65.4,97
		l-0.1,0.1L65,97.2l-0.4,0.1l-0.4,0l-0.3-0.7h0l0.4,0l0.3-0.1l0.2-0.1h0l0.2-0.1l0.1-0.2l0.1-0.2v-0.3v-0.1v0l-0.2,0.1l-0.2,0.1
		l-0.2,0.1L64.2,95.9L64.2,95.9z M65.1,92.3L65.1,92.3L65.1,92.3L65.1,92.3L65.1,92.3z M64.4,92.8l0.2,0l0.2,0.1L65,93l0.1,0.1v0
		v1.5v0L65,94.8h0l-0.2,0.1L64.6,95l-0.2,0h-0.1h0L64.2,95L64,94.9l-0.1-0.1v0l-0.1-0.1v0l-0.1-0.2l0-0.2l0-0.3l0-0.3l0-0.2l0.1-0.2
		v0l0.1-0.1l0.1-0.1h0l0.1-0.1h0l0.1,0H64.4L64.4,92.8L64.4,92.8z M64.3,95L64.3,95L64.2,95L64,94.9l-0.1-0.1l-0.1-0.1l-0.1-0.2
		l0-0.2l0-0.3l0-0.3l0-0.2l0.1-0.2l0.1-0.1l0.1-0.1l0.1-0.1l0.1,0h0.1l0.2,0l0.2,0.1L65,93l0.1,0.1l0,0l0,0v1.5L65,94.8l-0.2,0.1
		L64.6,95l-0.2,0L64.3,95L64.3,95z"/>
	<path class="st0" d="M69.4,95.9l-0.2,0l-0.2-0.1l-0.2-0.1l-0.2-0.2l-0.1-0.2l-0.1-0.3l0-0.3l0-0.3l0.1-0.3l0.2-0.2l0.2-0.2l0.2-0.1
		l0.2-0.1l0.3-0.1h0.3H70l0.2,0l0.2,0.1l0.2,0.1v-0.3v-0.1l0-0.1l-0.1-0.1l-0.1-0.1l-0.1-0.1l-0.1,0l-0.3,0l-0.3,0l-0.3,0l-0.2,0.1
		l-0.2,0.1l-0.4-0.6l0.3-0.2l0.3-0.1l0.4-0.1H70h0.3l0.3,0.1l0.3,0.1l0.2,0.1l0.2,0.2l0.1,0.2l0.1,0.3l0,0.3v2.6h-0.9v-0.3l-0.2,0.2
		l-0.3,0.1l-0.2,0.1l-0.2,0L69.4,95.9L69.4,95.9z M69.6,94.1L69.6,94.1L69.6,94.1l-0.2,0.1l-0.1,0.1l-0.1,0.1l0,0.1v0.1v0.1l0,0.1
		l0.1,0.1l0.1,0.1l0.1,0.1l0.1,0l0.1,0l0.1,0l0.2,0l0.2-0.1l0.1-0.1l0.1-0.1v-0.5l-0.2-0.1l-0.2-0.1l-0.2,0h-0.2h-0.1L69.6,94.1z"/>
	<path class="st0" d="M70.3,91.9H70h-0.4L69.2,92l-0.3,0.1l-0.3,0.2l0.4,0.6l0,0l0.2-0.1l0.2-0.1l0.3,0l0.3,0l0.3,0l0.1,0l0.1,0.1
		l0.1,0.1l0.1,0.1l0,0.1v0.1v0.3l-0.2-0.1l-0.2-0.1v0l-0.2,0h-0.2h-0.3l-0.3,0.1L69,93.4l-0.2,0.1l-0.2,0.2l-0.2,0.2l-0.1,0.3l0,0.3
		l0,0.3l0.1,0.3l0.1,0.2l0.2,0.2l0.2,0.1l0.2,0.1l0.2,0l0.3,0l0.2,0l0.2-0.1l0.3-0.1l0.2-0.2v0.3v0h1v-2.6l0-0.3l-0.1-0.3l-0.1-0.2
		l-0.2-0.2l-0.2-0.1L70.6,92L70.3,91.9L70.3,91.9z M68.9,92.9L68.9,92.9l-0.4-0.6l0.3-0.2l0.3-0.1l0.4-0.1H70h0.3l0.3,0.1l0.3,0.1
		l0.2,0.1l0.2,0.2l0.1,0.2l0.1,0.3l0,0.3v2.6h-0.9v-0.3l-0.2,0.2l-0.3,0.1l-0.2,0.1l-0.2,0l-0.3,0l-0.2,0l-0.2-0.1l-0.2-0.1
		l-0.2-0.2l-0.1-0.2l-0.1-0.3l0-0.3l0-0.3l0.1-0.3l0.2-0.2l0.2-0.2l0.2-0.1l0.2-0.1l0.3-0.1h0.3H70l0.2,0l0.2,0.1l0.2,0.1v-0.3v-0.1
		l0-0.1l-0.1-0.1l-0.1-0.1l-0.1-0.1l-0.1,0l-0.3,0l-0.3,0l-0.3,0l-0.2,0.1L68.9,92.9L68.9,92.9z M70.1,94l0.2,0l0.2,0.1l0.2,0.1v0.5
		l-0.1,0.1L70.3,95l-0.2,0.1l-0.2,0l-0.1,0l-0.1,0l-0.1,0L69.4,95l-0.1-0.1l-0.1-0.1l0-0.1v-0.1h0v0.1l0,0.1l0.1,0.1l0.1,0.1
		l0.1,0.1l0.1,0l0.1,0l0.1,0l0.2,0l0.2-0.1l0.1-0.1l0.1-0.1v-0.5l-0.2-0.1l-0.2-0.1L70.1,94l-0.2,0h-0.1l-0.1,0l-0.1,0l-0.1,0.1
		l-0.1,0.1l-0.1,0.1l0,0.1v0.1h0v-0.1l0-0.1l0.1-0.1l0.1-0.1l0.1-0.1l0.1,0l0.1,0h0.1L70.1,94L70.1,94z"/>
	<path class="st0" d="M70.3,91.9H70h-0.4L69.2,92l-0.3,0.1l-0.3,0.2l0.4,0.6l0.2-0.1l0.2-0.1l0.3,0l0.3,0l0.3,0l0.1,0l0.1,0.1
		l0.1,0.1l0.1,0.1l0,0.1v0.1v0.3l-0.2-0.1l-0.2-0.1l-0.2,0h-0.2h-0.3l-0.3,0.1L69,93.4l-0.2,0.1l-0.2,0.2L68.4,94l-0.1,0.3l0,0.3
		l0,0.3l0.1,0.3l0.1,0.2l0.2,0.2l0.2,0.1l0.2,0.1l0.2,0l0.3,0l0.2,0l0.2-0.1l0.3-0.1l0.2-0.2v0.3h0.9v-2.6l0-0.3l-0.1-0.3l-0.1-0.2
		l-0.2-0.2l-0.2-0.1L70.6,92L70.3,91.9L70.3,91.9z M68.9,92.9L68.9,92.9l-0.4-0.6l0.3-0.2l0.3-0.1l0.4-0.1H70h0.3l0.3,0.1l0.3,0.1
		l0.2,0.1l0.2,0.2l0.1,0.2l0.1,0.3l0,0.3v2.5h-0.9v-0.3v0l-0.2,0.2l-0.3,0.1l-0.2,0.1l-0.2,0l-0.3,0l-0.2,0l-0.2-0.1l-0.2-0.1
		l-0.2-0.2l-0.1-0.2l-0.1-0.3l0-0.3l0-0.3l0.1-0.3l0.2-0.2l0.2-0.2l0.2-0.1l0.2-0.1l0.3-0.1h0.3H70l0.2,0l0.2,0.1l0.2,0.1l0,0v-0.3
		v-0.1v0l0-0.1v0l-0.1-0.1l-0.1-0.1l-0.1-0.1h0l-0.1,0l-0.3,0h0l-0.3,0l-0.3,0h0l-0.2,0.1L68.9,92.9L68.9,92.9z M68.9,92.9
		L68.9,92.9L68.9,92.9L68.9,92.9L68.9,92.9z M70.1,94l0.2,0h0l0.2,0.1l0.2,0.1v0.5h0l-0.1,0.1L70.3,95l-0.2,0.1l-0.2,0l-0.1,0
		l-0.1,0l-0.1,0h0L69.4,95l-0.1-0.1l-0.1-0.1v0l0-0.1v-0.1h0v0.1l0,0.1l0.1,0.1l0.1,0.1l0.1,0.1l0.1,0l0.1,0l0.1,0l0.2,0l0.2-0.1
		l0.1-0.1l0.1-0.1v-0.5l-0.2-0.1l-0.2-0.1L70.1,94l-0.2,0h-0.1l-0.1,0l-0.1,0l-0.1,0.1l-0.1,0.1l-0.1,0.1l0,0.1v0.1h0v-0.1l0-0.1
		l0.1-0.1l0.1-0.1l0.1-0.1l0.1,0l0.1,0h0.1H70.1L70.1,94z"/>
	<path class="st0" d="M79.1,95.9l-0.4-0.1l-0.3-0.2l-0.2-0.2L78,95.1l-0.1-0.3l-0.1-0.4l0-0.4l0-0.4l0.1-0.4l0.1-0.3l0.2-0.3
		l0.3-0.2l0.3-0.2l0.3-0.1l0.4,0l0.3,0l0.3,0.1l0.3,0.2l0.2,0.2l0.2,0.3l0.1,0.3l0.1,0.4l0,0.4v0.3h-2.4l0.1,0.3l0.1,0.2l0.1,0.1
		l0.1,0.1l0.2,0.1l0.1,0l0.2,0l0.2,0l0.2-0.1l0.2-0.1l0.1-0.1l0.6,0.6l-0.2,0.1l-0.1,0.1l-0.2,0.1l-0.2,0.1l-0.3,0.1l-0.4,0
		L79.1,95.9L79.1,95.9z M79.3,92.7L79.3,92.7l-0.1,0L79,92.8l-0.1,0.1L78.8,93l-0.1,0.1l-0.1,0.2v0.2h1.4l0-0.3L80,93.1L79.9,93
		l-0.1-0.1l-0.1-0.1l-0.1,0l-0.2,0L79.3,92.7z"/>
	<path class="st0" d="M79.4,91.9l-0.4,0l-0.3,0.1l-0.3,0.2l-0.3,0.2L78,92.8l-0.1,0.3l-0.1,0.4l0,0.4l0,0.4l0.1,0.4l0.1,0.3l0.2,0.3
		l0.2,0.2l0.3,0.2l0.4,0.1l0.4,0l0.4,0l0.3-0.1l0.2-0.1l0.2-0.1v0l0.1-0.1l0.2-0.1l0,0l-0.6-0.6l0,0l-0.1,0.1L80,94.9L79.8,95
		l-0.2,0l-0.2,0l-0.1,0L79,94.9l-0.1-0.1l-0.1-0.1l-0.1-0.2l-0.1-0.3H81v-0.3v0l0-0.4l-0.1-0.4l-0.1-0.3l-0.2-0.3l-0.2-0.2l-0.3-0.2
		L79.8,92L79.4,91.9L79.4,91.9z M79.5,95.9L79.5,95.9l-0.4,0l-0.4-0.1l-0.3-0.2l-0.2-0.2L78,95.1l-0.1-0.3l-0.1-0.4l0-0.4l0-0.4
		l0.1-0.4l0.1-0.3l0.2-0.3l0.3-0.2l0.3-0.2l0.3-0.1l0.4,0l0.3,0l0.3,0.1l0.3,0.2l0.2,0.2l0.2,0.3l0.1,0.3l0.1,0.4l0,0.4v0.3h-2.4
		l0.1,0.3l0.1,0.2l0.1,0.1l0.1,0.1l0.2,0.1l0.1,0l0.2,0l0.2,0l0.2-0.1l0.2-0.1l0.1-0.1l0.6,0.6l-0.2,0.1l-0.1,0.1l-0.2,0.1l-0.2,0.1
		l-0.3,0.1L79.5,95.9L79.5,95.9z M79.4,92.7l0.2,0l0.1,0l0.1,0.1l0.1,0.1l0.1,0.1l0.1,0.1l0,0.3h-1.4v-0.2l0.1-0.2l0.1-0.1l0.1-0.1
		l0.1-0.1l0.1-0.1l0.1,0L79.4,92.7L79.4,92.7L79.4,92.7z M78.7,93.5L78.7,93.5v-0.2l0.1-0.2l0.1-0.1l0.1-0.1l0.1-0.1l0.1-0.1l0.1,0
		l0.1,0l0.2,0l0.1,0l0.1,0.1l0.1,0.1l0.1,0.1l0.1,0.1l0,0.3H78.7z"/>
	<path class="st0" d="M79.4,91.9l-0.4,0l-0.3,0.1l-0.3,0.2l-0.3,0.2L78,92.8l-0.1,0.3l-0.1,0.4l0,0.4l0,0.4l0.1,0.4l0.1,0.3l0.2,0.3
		l0.2,0.2l0.3,0.2l0.4,0.1l0.4,0l0.4,0l0.3-0.1l0.2-0.1l0.2-0.1l0.1-0.1l0.2-0.1l-0.6-0.6l0,0l0,0l-0.1,0.1L80,94.9L79.8,95l-0.2,0
		l-0.2,0l-0.1,0L79,94.9l-0.1-0.1l-0.1-0.1l-0.1-0.2l-0.1-0.3H81v-0.3l0-0.4l-0.1-0.4l-0.1-0.3l-0.2-0.3l-0.2-0.2l-0.3-0.2L79.8,92
		L79.4,91.9L79.4,91.9z M79.5,95.9L79.5,95.9l-0.4,0l-0.4-0.1l-0.3-0.2l-0.2-0.2L78,95.1l-0.1-0.3l-0.1-0.4l0-0.4l0-0.4l0.1-0.4
		l0.1-0.3l0.2-0.3l0.3-0.2l0.3-0.2l0.3-0.1l0.4,0l0.3,0l0.3,0.1l0.3,0.2l0.2,0.2l0.2,0.3l0.1,0.3l0.1,0.4l0,0.4v0.3h-2.4l0.1,0.3
		l0.1,0.2v0l0.1,0.1l0.1,0.1l0.2,0.1l0.1,0l0.2,0l0.2,0l0.2-0.1l0.2-0.1h0l0.1-0.1l0.6,0.6l-0.2,0.1l-0.1,0.1l-0.2,0.1l-0.2,0.1
		l-0.3,0.1L79.5,95.9L79.5,95.9z M79.4,92.7L79.4,92.7l0.2,0l0.1,0h0l0.1,0.1v0l0.1,0.1v0l0.1,0.1l0.1,0.1l0,0.3h-1.4h0v0v-0.2
		l0.1-0.2l0.1-0.1l0.1-0.1v0l0.1-0.1l0.1-0.1v0l0.1,0L79.4,92.7L79.4,92.7L79.4,92.7z M78.7,93.5L78.7,93.5v-0.2l0.1-0.2l0.1-0.1
		l0.1-0.1l0.1-0.1l0.1-0.1l0.1,0l0.1,0l0.2,0l0.1,0l0.1,0.1l0.1,0.1l0.1,0.1l0.1,0.1l0,0.3L78.7,93.5L78.7,93.5z"/>
	<path class="st0" d="M88.2,95.9l-0.4-0.1l-0.3-0.2l-0.3-0.2l-0.2-0.3l-0.2-0.3l-0.1-0.4l0-0.4l0-0.4l0.1-0.4l0.2-0.3l0.2-0.3
		l0.2-0.2l0.3-0.2l0.3-0.1l0.3,0l0.4,0l0.3,0.1l0.3,0.2l0.2,0.2l0.2,0.3l0.1,0.3l0.1,0.4l0,0.4v0.3h-2.4l0,0.3l0.1,0.2l0.1,0.1
		l0.1,0.1l0.1,0.1l0.1,0l0.2,0l0.2,0l0.2-0.1l0.2-0.1l0.2-0.1l0.6,0.6l-0.1,0.1l-0.2,0.1l-0.1,0.1l-0.2,0.1l-0.4,0.1l-0.4,0
		L88.2,95.9L88.2,95.9z M88.3,92.7L88.3,92.7l-0.1,0l-0.1,0.1L88,92.9L87.9,93l-0.1,0.1l0,0.2v0.2h1.4l-0.1-0.3l0-0.1L89,93
		l-0.1-0.1l-0.1-0.1l-0.1,0l-0.2,0L88.3,92.7z"/>
	<path class="st0" d="M88.5,91.9l-0.3,0l-0.3,0.1l-0.3,0.2l-0.2,0.2l-0.2,0.3l-0.2,0.3l-0.1,0.4l0,0.4l0,0.4l0.1,0.4l0.2,0.3
		l0.2,0.3l0.3,0.2l0.3,0.2l0.4,0.1l0.4,0l0.4,0l0.4-0.1l0.2-0.1v0l0.1-0.1l0.2-0.1l0.1-0.1l0,0l-0.6-0.6l0,0l-0.2,0.1L89,94.9
		L88.8,95l-0.2,0l-0.2,0l-0.1,0l-0.1-0.1L88,94.8l-0.1-0.1l-0.1-0.2l0-0.3h2.4v-0.3l0-0.4L90,93.1l-0.1-0.3l-0.2-0.3l-0.2-0.2
		l-0.3-0.2L88.8,92L88.5,91.9L88.5,91.9z M88.6,95.9L88.6,95.9l-0.4,0l-0.4-0.1l-0.3-0.2l-0.3-0.2l-0.2-0.3l-0.2-0.3l-0.1-0.4l0-0.4
		l0-0.4l0.1-0.4l0.2-0.3l0.2-0.3l0.2-0.2l0.3-0.2l0.3-0.1l0.3,0l0.4,0l0.3,0.1l0.3,0.2l0.2,0.2l0.2,0.3l0.1,0.3l0.1,0.4l0,0.4v0.3
		h-2.4l0,0.3l0.1,0.2l0.1,0.1l0.1,0.1l0.1,0.1l0.1,0l0.2,0l0.2,0l0.2-0.1l0.2-0.1l0.2-0.1l0.6,0.6l-0.1,0.1l-0.2,0.1l-0.1,0.1
		l-0.2,0.1l-0.4,0.1L88.6,95.9L88.6,95.9z M88.5,92.7l0.2,0l0.1,0l0.1,0.1L89,93l0.1,0.1l0,0.1l0.1,0.3h-1.4v-0.2l0-0.2l0.1-0.1
		l0.1-0.1l0.1-0.1l0.1-0.1l0.1,0L88.5,92.7L88.5,92.7L88.5,92.7z M87.8,93.5L87.8,93.5v-0.2l0-0.2l0.1-0.1l0.1-0.1l0.1-0.1l0.1-0.1
		l0.1,0l0.2,0l0.2,0l0.1,0l0.1,0.1L89,93l0.1,0.1l0,0.1l0.1,0.3H87.8z"/>
	<path class="st0" d="M88.5,91.9l-0.3,0l-0.3,0.1l-0.3,0.2l-0.2,0.2l-0.2,0.3l-0.2,0.3l-0.1,0.4l0,0.4l0,0.4l0.1,0.4l0.2,0.3
		l0.2,0.3l0.3,0.2l0.3,0.2l0.4,0.1l0.4,0l0.4,0l0.4-0.1l0.2-0.1l0.1-0.1l0.2-0.1l0.1-0.1l-0.6-0.6l0,0l0,0l-0.2,0.1L89,94.9L88.8,95
		l-0.2,0l-0.2,0l-0.1,0l-0.1-0.1L88,94.8l-0.1-0.1l-0.1-0.2l0-0.3h2.4v-0.3l0-0.4l-0.1-0.4l-0.1-0.3l-0.2-0.3l-0.2-0.2l-0.3-0.2
		L88.8,92L88.5,91.9L88.5,91.9z M88.6,95.9L88.6,95.9l-0.4,0l-0.4-0.1l-0.3-0.2l-0.3-0.2l-0.2-0.3l-0.2-0.3l-0.1-0.4l0-0.4l0-0.4
		l0.1-0.4l0.2-0.3l0.2-0.3l0.2-0.2l0.3-0.2l0.3-0.1l0.3,0l0.4,0l0.3,0.1l0.3,0.2l0.2,0.2l0.2,0.3l0.1,0.3l0.1,0.4l0,0.4v0.3h-2.4
		l0,0.3v0l0.1,0.2h0l0.1,0.1h0l0.1,0.1l0.1,0.1v0l0.1,0l0.2,0l0.2,0h0l0.2-0.1h0l0.2-0.1l0.2-0.1l0.6,0.6l-0.1,0.1l-0.2,0.1
		l-0.1,0.1l-0.2,0.1l-0.4,0.1L88.6,95.9L88.6,95.9z M88.5,92.7L88.5,92.7l0.2,0l0.1,0l0.1,0.1v0L89,93v0l0.1,0.1l0,0.1l0.1,0.3h-1.4
		h0v0v-0.2v0l0-0.2l0.1-0.1l0.1-0.1l0.1-0.1l0.1-0.1l0,0l0.1,0L88.5,92.7L88.5,92.7L88.5,92.7z M87.8,93.5L87.8,93.5v-0.2l0-0.2
		l0.1-0.1l0.1-0.1l0.1-0.1l0.1-0.1l0.1,0l0.2,0l0.2,0l0.1,0l0.1,0.1L89,93l0.1,0.1l0,0.1l0.1,0.3H87.8z"/>
	<polygon class="st0" points="85.3,95.9 85.1,95.8 84.9,95.7 84.8,95.5 84.7,95.3 84.6,95.1 84.6,94.9 84.5,94.7 84.5,92.9 84,92.9 
		84,92 84.5,92 84.5,91 85.5,90.6 85.5,92 86.4,92 86.4,92.9 85.5,92.9 85.5,94.5 85.5,94.7 85.6,94.9 85.6,94.9 85.7,95 85.9,95 
		86,95 86.2,95 86.5,94.8 86.4,95.7 86.2,95.8 86,95.8 85.8,95.9 85.5,95.9 	"/>
	<path class="st0" d="M85.5,90.5l-1,0.5v1H84v0.9h0.6v1.8l0,0.2l0,0.2l0.1,0.2v0l0.1,0.2l0.1,0.2v0l0.2,0.1l0.2,0.1l0.2,0l0.2,0
		l0.2,0l0.2,0l0.2-0.1l0,0l0.1-0.9L86.2,95L86,95h-0.2l-0.2,0l-0.1,0l-0.1-0.1l-0.1-0.1l0-0.2v-1.6h0.9V92h-0.9V90.5L85.5,90.5z
		 M84,92.9L84,92.9V92h0.6v-1l0.9-0.5V92h0.9v0.9h-0.9v1.6l0,0.2l0.1,0.1l0.1,0.1l0.1,0l0.2,0H86l0.1,0l0.3-0.1l-0.1,0.9l-0.2,0.1
		l-0.2,0l-0.2,0l-0.2,0l-0.2,0l-0.2-0.1l-0.2-0.1l-0.1-0.2l-0.1-0.2l-0.1-0.2l0-0.2l0-0.2v-1.8L84,92.9L84,92.9z"/>
	<path class="st0" d="M85.5,90.6L84.5,91v1H84v0.9h0.6v1.9l0,0.2l0,0.2l0.1,0.2l0.1,0.2l0.1,0.2l0.2,0.1l0.2,0.1l0.2,0l0.2,0l0.2,0
		l0.2,0l0.2-0.1l0.1-0.9L86.2,95L86,95h-0.2l-0.2,0l-0.1,0l-0.1-0.1l-0.1-0.1l0-0.2v-1.6h0.9V92h-0.9L85.5,90.6L85.5,90.6z M84,92.9
		L84,92.9V92h0.6v-1l0.9-0.5V92h0.9v0.9h-0.9v0h0h0v1.6l0,0.2v0l0.1,0.1v0l0.1,0.1l0.1,0h0l0.2,0h0H86l0.1,0l0.3-0.1l-0.1,0.9
		l-0.2,0.1l-0.2,0l-0.2,0l-0.2,0l-0.2,0l-0.2-0.1l-0.2-0.1l-0.1-0.2l-0.1-0.2l-0.1-0.2l0-0.2l0-0.2v-1.9C84.5,92.9,84,92.9,84,92.9z
		"/>
	<polygon class="st0" points="82.6,95.9 82.4,95.8 82.2,95.7 82.1,95.5 82,95.3 81.9,95.1 81.9,94.9 81.8,94.7 81.8,92.9 81.3,92.9 
		81.3,92 81.8,92 81.8,91 82.8,90.6 82.8,92 83.6,92 83.6,92.9 82.8,92.9 82.8,94.5 82.8,94.7 82.9,94.9 83,94.9 83,95 83.2,95 
		83.4,95 83.5,95 83.8,94.8 83.7,95.7 83.5,95.8 83.3,95.8 83.1,95.9 82.9,95.9 	"/>
	<path class="st0" d="M82.8,90.5l-1,0.5v1h-0.6v0.9h0.6v1.8l0,0.2l0,0.2l0.1,0.2l0,0l0.1,0.2l0.1,0.2v0l0.2,0.1l0.2,0.1l0.2,0h0
		l0.2,0l0.2,0l0.2,0h0l0.2-0.1l0,0l0.1-0.9l0,0l0,0l0,0L83.5,95l-0.1,0h-0.2L83,95l-0.1,0l-0.1-0.1l-0.1-0.1l0-0.2v-1.6h0.8V92h-0.8
		L82.8,90.5L82.8,90.5z M81.3,92.9L81.3,92.9V92h0.6v-1l0.9-0.5V92h0.8v0.9h-0.8v1.6l0,0.2l0.1,0.1l0.1,0.1l0.1,0l0.2,0h0.2l0.1,0
		l0.3-0.1l-0.1,0.9l-0.2,0.1l-0.2,0l-0.2,0l-0.2,0l-0.2,0l-0.2-0.1l-0.2-0.1l-0.1-0.2L82,95.3l-0.1-0.2l0-0.2l0-0.2v-1.8L81.3,92.9
		L81.3,92.9z"/>
	<path class="st0" d="M82.8,90.6L81.8,91v1h-0.6v0.9h0.6v1.9l0,0.2l0,0.2l0.1,0.2l0.1,0.2l0.1,0.2l0.2,0.1l0.2,0.1l0.2,0l0.2,0
		l0.2,0l0.2,0l0.2-0.1l0.1-0.9L83.5,95l-0.1,0h-0.2L83,95l-0.1,0l-0.1-0.1l-0.1-0.1l0-0.2v-1.6h0.8V92h-0.8L82.8,90.6L82.8,90.6z
		 M81.3,92.9L81.3,92.9V92h0.6v-1l0.9-0.5V92h0.8v0.9h-0.8v1.6l0,0.2v0l0.1,0.1v0l0.1,0.1l0.1,0h0l0.2,0h0.2l0.1,0l0.3-0.1l-0.1,0.9
		l-0.2,0.1l-0.2,0l-0.2,0l-0.2,0l-0.2,0l-0.2-0.1l-0.2-0.1l-0.1-0.2L82,95.3l-0.1-0.2l0-0.2l0-0.2v-1.9L81.3,92.9L81.3,92.9z"/>
	<polygon class="st0" points="90.7,95.8 90.7,92 91.6,92 91.6,92.3 91.8,92.1 92,92 92.2,91.9 92.5,91.9 92.6,91.9 92.8,92 93,92.1 
		93.2,92.1 92.9,93.1 92.8,93 92.6,92.9 92.5,92.9 92.3,92.9 92.1,92.9 92,92.9 91.9,93 91.8,93.1 91.7,93.2 91.7,93.3 91.6,93.5 
		91.6,93.7 91.6,95.8 	"/>
	<path class="st0" d="M92.6,91.9h-0.2h-0.2L92,92l-0.2,0.1v0l-0.2,0.2V92v0h-1v3.8h1v-2.1v-0.2l0-0.2l0.1-0.1l0.1-0.1l0.1-0.1
		l0.1-0.1l0.1,0h0.2h0.2l0.2,0l0.1,0.1l0.1,0.1l0,0l0.3-1l0,0L93,92.1L92.8,92L92.6,91.9L92.6,91.9L92.6,91.9z M91.6,92.3L91.6,92.3
		l0.2-0.2L92,92l0.2-0.1h0.2h0.2l0.2,0l0.2,0.1l0.2,0.1l-0.3,0.9L92.8,93l-0.1-0.1l-0.2,0h-0.2h-0.2l-0.1,0L91.9,93l-0.1,0.1
		l-0.1,0.1l-0.1,0.1l0,0.2v0.2v2.1h-0.9V92h0.9L91.6,92.3L91.6,92.3z"/>
	<path class="st0" d="M92.6,91.9h-0.2h-0.2L92,92l-0.2,0.1l-0.2,0.2V92h-0.9v3.8h0.9v-2.1v-0.2l0-0.2l0.1-0.1l0.1-0.1l0.1-0.1
		l0.1-0.1l0.1,0h0.2h0.2l0.2,0l0.1,0.1l0.1,0.1l0.3-0.9L93,92.1L92.8,92L92.6,91.9L92.6,91.9z M92,92L92,92l0.2-0.1h0.2h0.2l0.2,0
		l0.2,0.1l0.2,0.1l-0.3,0.9L92.8,93l-0.1-0.1l-0.2,0h-0.2h-0.2l-0.1,0L91.9,93l-0.1,0.1l-0.1,0.1l-0.1,0.1l0,0.2v0.2v2h-0.9V92h0.9
		v0.3v0l0.2-0.2L92,92z"/>
	<rect x="49.6" y="90.5" class="st0" width="0.9" height="0.9"/>
	<path class="st0" d="M49.6,90.5h0.9v0.9h-0.9V90.5L49.6,90.5z M50.5,90.5L50.5,90.5L50.5,90.5L50.5,90.5L50.5,90.5z M50.5,90.5
		L50.5,90.5h-0.9v1h1L50.5,90.5L50.5,90.5z"/>
	<path class="st0" d="M49.6,90.5h0.9v0.9h-0.9V90.5L49.6,90.5z M49.6,91.5L49.6,91.5h0.9v-0.9h-0.9V91.5z"/>
	<rect x="57" y="92" class="st0" width="0.9" height="3.8"/>
	<path class="st0" d="M57,92H58v3.8H57V92L57,92z M57,92L57,92v3.8h0H58V92H57z"/>
	<path class="st0" d="M57,95.8L57,95.8L57,95.8L57,95.8z M57.1,92L57.1,92H58v3.8h-0.9V92L57.1,92z M57,95.8L57,95.8H58V92H57V95.8z
		"/>
	<rect x="57" y="90.5" class="st0" width="0.9" height="0.9"/>
	<path class="st0" d="M57,90.5H58v0.9H57V90.5L57,90.5z M58,90.5L58,90.5L58,90.5L58,90.5L58,90.5z M58,90.5L58,90.5H57v1h1L58,90.5
		L58,90.5z"/>
	<path class="st0" d="M57.1,90.5H58v0.9h-0.9V90.5L57.1,90.5z M57,91.5L57,91.5H58v-0.9H57V91.5z"/>
	<path class="st0" d="M82.9,102.5l-0.3,0l-0.3-0.1l-0.3-0.2l-0.2-0.2l-0.2-0.3l-0.1-0.4l-0.1-0.4l0-0.5l0-0.4l0.1-0.4l0.1-0.3
		l0.2-0.3l0.2-0.2l0.3-0.2l0.3-0.1l0.3,0l0.2,0l0.2,0.1l0.2,0.1l0.2,0.2v-1.4l0.9-0.5v5.4h-0.9v-0.3l-0.2,0.2l-0.2,0.1l-0.2,0.1
		L82.9,102.5L82.9,102.5z M82.9,99.5L82.9,99.5l-0.1,0.1l-0.1,0.1l-0.1,0.1l-0.1,0.2l-0.1,0.3v0.3v0.3l0.1,0.3l0.1,0.2l0.1,0.2
		l0.1,0.1l0.1,0.1l0.1,0h0.1h0.2l0.2-0.1l0.1-0.1l0.1-0.1v-1.5l-0.1-0.1l-0.2-0.1l-0.2-0.1l-0.2,0H83L82.9,99.5z"/>
	<path class="st0" d="M84.7,97.1l-1,0.5v1.4l-0.2-0.2l-0.2-0.1l-0.2-0.1l-0.2,0l-0.3,0l-0.3,0.1L82,98.9l-0.2,0.2l-0.2,0.3l-0.1,0.3
		l-0.1,0.4l0,0.4l0,0.5l0.1,0.4l0.1,0.4l0.2,0.3l0.2,0.2l0.3,0.2l0.3,0.1l0.3,0h0.2l0.2-0.1l0.2-0.1l0.2-0.2v0.3v0h1L84.7,97.1
		L84.7,97.1z M83.8,98.9L83.8,98.9v-1.4l0.9-0.5v5.4h-0.9v-0.3l-0.2,0.2l-0.2,0.1l-0.2,0.1h-0.2l-0.3,0l-0.3-0.1l-0.3-0.2l-0.2-0.2
		l-0.2-0.3l-0.1-0.4l-0.1-0.4l0-0.5l0-0.4l0.1-0.4l0.1-0.3l0.2-0.3l0.2-0.2l0.3-0.2l0.3-0.1l0.3,0l0.2,0l0.2,0.1l0.2,0.1L83.8,98.9
		L83.8,98.9z M83.1,99.4l0.2,0l0.2,0.1l0.2,0.1l0.1,0.1v1.5l-0.1,0.1l-0.1,0.1l-0.2,0.1h-0.2H83l-0.1,0l-0.1-0.1l-0.1-0.1l-0.1-0.2
		l-0.1-0.2l-0.1-0.3v-0.3v-0.3l0.1-0.3l0.1-0.2l0.1-0.1l0.1-0.1l0.1-0.1l0.1,0L83.1,99.4L83.1,99.4L83.1,99.4z M83,101.6L83,101.6
		l-0.1,0l-0.1-0.1l-0.1-0.1l-0.1-0.2l-0.1-0.2l-0.1-0.3v-0.3v-0.3l0.1-0.3l0.1-0.2l0.1-0.1l0.1-0.1l0.1-0.1l0.1,0h0.1l0.2,0l0.2,0.1
		l0.2,0.1l0.1,0.1v1.5l-0.1,0.1l-0.1,0.1l-0.2,0.1h-0.2H83z"/>
	<path class="st0" d="M84.7,97.1l-0.9,0.5v1.4l-0.2-0.2l-0.2-0.1l-0.2-0.1l-0.2,0l-0.3,0l-0.3,0.1l-0.3,0.2l-0.2,0.2l-0.2,0.3
		l-0.1,0.3l-0.1,0.4l0,0.4l0,0.5l0.1,0.4l0.1,0.4l0.2,0.3l0.2,0.2l0.3,0.2l0.3,0.1l0.3,0h0.2l0.2-0.1l0.2-0.1l0.2-0.2v0.3h0.9V97.1
		L84.7,97.1z M83.8,98.9L83.8,98.9v-1.4l0.9-0.5v5.4h-0.9v-0.3v0l-0.2,0.2l-0.2,0.1l-0.2,0.1h-0.2l-0.3,0l-0.3-0.1l-0.3-0.2
		l-0.2-0.2l-0.2-0.3l-0.1-0.4l-0.1-0.4l0-0.5l0-0.4l0.1-0.4l0.1-0.3l0.2-0.3l0.2-0.2l0.3-0.2l0.3-0.1l0.3,0l0.2,0l0.2,0.1l0.2,0.1
		L83.8,98.9L83.8,98.9L83.8,98.9z M83.8,98.9L83.8,98.9L83.8,98.9L83.8,98.9L83.8,98.9z M83.1,99.4l0.2,0l0.2,0.1l0.2,0.1h0l0.1,0.1
		v1.5v0l-0.1,0.1l-0.1,0.1l-0.2,0.1h0h-0.2H83l-0.1,0l-0.1-0.1l-0.1-0.1l-0.1-0.2l-0.1-0.2l-0.1-0.3v-0.3v-0.3l0.1-0.3l0.1-0.2v0
		l0.1-0.1l0.1-0.1l0.1-0.1l0.1,0H83.1L83.1,99.4L83.1,99.4z M83,101.6L83,101.6L83,101.6l-0.2-0.1l-0.1-0.1l-0.1-0.2l-0.1-0.2
		l-0.1-0.3v-0.3v-0.3l0.1-0.3l0.1-0.2l0.1-0.1l0.1-0.1l0.1-0.1l0.1,0h0.1l0.2,0l0.2,0.1l0.2,0.1l0.1,0.1v1.5l-0.1,0.1l-0.1,0.1
		l-0.2,0.1h-0.2L83,101.6L83,101.6z"/>
	<polygon class="st0" points="49.7,102.4 49.7,98.7 50.6,98.7 50.6,99 50.8,98.8 51,98.7 51.2,98.6 51.4,98.6 51.6,98.6 51.8,98.6 
		52,98.7 52.1,98.8 51.9,99.7 51.7,99.6 51.6,99.6 51.4,99.5 51.3,99.5 51.1,99.5 51,99.6 50.8,99.6 50.8,99.7 50.7,99.8 50.6,100 
		50.6,100.2 50.6,100.4 50.6,102.4 	"/>
	<path class="st0" d="M51.4,98.5l-0.3,0L51,98.6l-0.2,0.1L50.6,99v-0.3v0h-1v3.8h1v-2.1v-0.2l0-0.2l0-0.2l0.1-0.1h0l0.1-0.1l0.1-0.1
		l0.1,0l0.2,0l0.2,0l0.1,0l0.2,0.1l0.1,0.1l0,0l0.3-0.9l0,0L52,98.7l-0.2-0.1l-0.2,0L51.4,98.5L51.4,98.5L51.4,98.5z M50.6,99
		L50.6,99l0.2-0.2l0.2-0.1l0.2-0.1l0.3,0l0.2,0l0.2,0l0.2,0.1l0.2,0.1l-0.3,0.9l-0.1-0.1l-0.2-0.1l-0.1,0l-0.2,0l-0.2,0l-0.1,0
		l-0.1,0.1l-0.1,0.1l-0.1,0.1l0,0.2l0,0.2v0.2v2h-0.9v-3.8h0.9V99z"/>
	<path class="st0" d="M51.4,98.6l-0.3,0L51,98.7l-0.2,0.1L50.6,99v-0.3h-0.9v3.8h0.9v-2v-0.2l0-0.2l0-0.2l0.1-0.1l0.1-0.1l0.1-0.1
		l0.1,0l0.2,0l0.2,0l0.1,0l0.2,0.1l0.1,0.1l0.3-0.9L52,98.7l-0.2-0.1l-0.2,0L51.4,98.6L51.4,98.6z M50.6,99L50.6,99l0.2-0.2l0.2-0.1
		l0.2-0.1l0.3,0l0.2,0l0.2,0l0.2,0.1l0.2,0.1l-0.3,0.9l-0.1-0.1l-0.2-0.1l-0.1,0l-0.2,0l-0.2,0l-0.1,0l-0.1,0.1l-0.1,0.1l-0.1,0.1
		l0,0l0,0.2l0,0.2v0v0.2v2h-0.9v-3.8h0.9L50.6,99L50.6,99L50.6,99z"/>
	<polygon class="st0" points="43.5,102.4 43.1,100.9 42.9,100 42.7,100.9 42.3,102.4 41.5,102.4 41.5,102.4 40.4,98.8 40.4,98.7 
		41.4,98.7 41.7,100.1 41.9,101 42,100.5 42.1,100 42.5,98.7 43.3,98.7 43.7,100 43.9,101 44.1,100 44.5,98.7 45.4,98.7 44.3,102.4 
			"/>
	<path class="st0" d="M45.4,98.6h-1l-0.3,1.4h0h0l-0.2,0.9l-0.2-0.9l-0.4-1.4h-0.8l-0.4,1.4l-0.1,0.5l-0.1,0.5l-0.2-0.9l-0.4-1.4h-1
		l1,3.8l0,0v0h0.8l0.4-1.6l0.2-0.8l0.2,0.8l0.4,1.6h0.8L45.4,98.6L45.4,98.6z M43.9,101L43.9,101l0.2-1l0.3-1.4h0.9l-1.1,3.8h-0.8
		l-0.4-1.6l-0.2-0.8l-0.2,0.9l-0.4,1.5h-0.8l0,0l-1-3.6v0l0-0.1h0v0h0.9l0.4,1.4l0.2,0.9l0.1-0.5l0.1-0.5l0.4-1.4h0.8l0.4,1.4
		L43.9,101z"/>
	<polygon class="st0" points="45.4,98.7 44.5,98.7 44.1,100 43.9,101 43.7,100 43.3,98.7 42.5,98.7 42.1,100 42,100.5 41.9,101 
		41.7,100.1 41.3,98.7 40.4,98.7 40.4,98.7 41.3,98.7 41.7,100.1 41.9,101 42,100.5 42.1,100 42.5,98.7 43.3,98.7 43.7,100 
		43.9,101 44.1,100 44.5,98.7 45.4,98.7 44.3,102.4 43.5,102.4 43.1,100.9 42.9,100 42.7,100.9 42.3,102.4 41.5,102.4 41.5,102.4 
		40.4,98.8 40.4,98.8 41.5,102.4 41.5,102.4 42.3,102.4 42.7,100.9 42.9,100 43.1,100.9 43.5,102.4 44.3,102.4 	"/>
	<path class="st0" d="M47,102.5l-0.3-0.1l-0.3-0.2l-0.3-0.2l-0.2-0.3l-0.2-0.3l-0.1-0.4l0-0.4l0-0.4l0.1-0.4l0.2-0.4l0.2-0.3
		l0.3-0.2l0.3-0.2l0.3-0.1l0.4,0l0.4,0l0.3,0.1l0.3,0.2l0.3,0.2l0.2,0.3l0.2,0.4l0.1,0.4l0,0.4l0,0.4l-0.1,0.4l-0.2,0.3l-0.2,0.3
		l-0.3,0.2l-0.3,0.2l-0.3,0.1l-0.4,0L47,102.5L47,102.5z M47,99.5L47,99.5l-0.1,0.1l-0.1,0.1l-0.1,0.2l-0.1,0.2l0,0.2l0,0.2l0,0.2
		l0,0.2l0.1,0.2l0.1,0.2l0.1,0.1l0.1,0.1l0.1,0l0.2,0l0.2,0l0.1,0l0.1-0.1l0.1-0.1l0.1-0.2L48,101l0.1-0.2v-0.2v-0.2l-0.1-0.2
		L48,99.9l-0.1-0.2l-0.1-0.1l-0.1-0.1l-0.1-0.1h-0.2h-0.2L47,99.5z"/>
	<path class="st0" d="M47.3,98.5l-0.4,0l-0.3,0.1l-0.3,0.2l-0.3,0.2l-0.2,0.3l-0.2,0.4l-0.1,0.4l0,0.4l0,0.4l0.1,0.4l0.2,0.3
		l0.2,0.3l0.3,0.2l0.3,0.2l0.3,0.1l0.4,0l0.4,0l0.3-0.1l0.3-0.2l0.3-0.2l0.2-0.3l0.2-0.3L49,101l0-0.4l0-0.4L49,99.8l-0.2-0.4
		l-0.2-0.3l-0.3-0.2L48,98.7l-0.3-0.1L47.3,98.5L47.3,98.5z M47.3,98.6L47.3,98.6l0.4,0l0.3,0.1l0.3,0.2l0.3,0.2l0.2,0.3l0.2,0.4
		l0.1,0.4l0,0.4l0,0.4l-0.1,0.4l-0.2,0.3l-0.2,0.3l-0.3,0.2l-0.3,0.2l-0.3,0.1l-0.4,0l-0.4,0l-0.3-0.1l-0.3-0.2l-0.3-0.2l-0.2-0.3
		l-0.2-0.3l-0.1-0.4l0-0.4l0-0.4l0.1-0.4l0.2-0.4l0.2-0.3l0.3-0.2l0.3-0.2l0.3-0.1L47.3,98.6L47.3,98.6z M47.5,99.5l0.1,0.1l0.1,0.1
		l0.1,0.1l0.1,0.2l0.1,0.2l0.1,0.2v0.2v0.2L48,101l-0.1,0.2l-0.1,0.2l-0.1,0.1l-0.1,0.1l-0.1,0l-0.2,0l-0.2,0l-0.1,0l-0.1-0.1
		l-0.1-0.1l-0.1-0.2l-0.1-0.2l0-0.2l0-0.2l0-0.2l0-0.2l0.1-0.2l0.1-0.2l0.1-0.1l0.1-0.1l0.1-0.1h0.2L47.5,99.5L47.5,99.5L47.5,99.5z
		 M47.3,101.6L47.3,101.6l-0.2,0l-0.1,0l-0.1-0.1l-0.1-0.1l-0.1-0.2l-0.1-0.2l0-0.2l0-0.2l0-0.2l0-0.2l0.1-0.2l0.1-0.2l0.1-0.1
		l0.1-0.1l0.1-0.1h0.2h0.2l0.1,0.1l0.1,0.1l0.1,0.1l0.1,0.2l0.1,0.2l0.1,0.2v0.2v0.2L48,101l-0.1,0.2l-0.1,0.2l-0.1,0.1l-0.1,0.1
		l-0.1,0L47.3,101.6z"/>
	<path class="st0" d="M47.3,98.6L47.3,98.6L47.3,98.6l-0.4,0l-0.3,0.1l-0.3,0.2l-0.3,0.2l-0.2,0.3l-0.2,0.4l-0.1,0.4l0,0.4l0,0.4
		l0.1,0.4l0.2,0.3l0.2,0.3l0.3,0.2l0.3,0.2l0.3,0.1l0.4,0l0.4,0l0.3-0.1l0.3-0.2l0.3-0.2l0.2-0.3l0.2-0.3L49,101l0-0.4l0-0.4
		l-0.1-0.4l-0.2-0.4l-0.2-0.3l-0.3-0.2L48,98.7l-0.3-0.1L47.3,98.6L47.3,98.6z M47.3,102.5L47.3,102.5l-0.4,0l-0.3-0.1l-0.3-0.2
		l-0.3-0.2l-0.2-0.3l-0.2-0.3l-0.1-0.4l0-0.4l0-0.4l0.1-0.4l0.2-0.4l0.2-0.3l0.3-0.2l0.3-0.2l0.3-0.1l0.4,0l0.4,0l0.3,0.1l0.3,0.2
		l0.3,0.2l0.2,0.3l0.2,0.4l0.1,0.4l0,0.4l0,0.4l-0.1,0.4l-0.2,0.3l-0.2,0.3l-0.3,0.2l-0.3,0.2l-0.3,0.1L47.3,102.5L47.3,102.5z
		 M47.5,99.5l0.1,0.1l0.1,0.1l0.1,0.1l0,0l0.1,0.2l0.1,0.2l0.1,0.2v0v0.2v0.2L48,101v0l-0.1,0.2l-0.1,0.2l-0.1,0.1l-0.1,0.1l-0.1,0
		l-0.2,0h0l-0.2,0l-0.1,0l-0.1-0.1h0l-0.1-0.1l0,0l-0.1-0.2l-0.1-0.2l0-0.2l0-0.2l0-0.2l0-0.2l0.1-0.2l0.1-0.2l0.1-0.1l0.1-0.1
		l0.1-0.1h0h0.2L47.5,99.5L47.5,99.5L47.5,99.5z M47.3,101.6L47.3,101.6l-0.2,0l-0.1,0l-0.1-0.1l-0.1-0.1l-0.1-0.2l-0.1-0.2l0-0.2
		l0-0.2l0-0.2l0-0.2l0.1-0.2l0.1-0.2l0.1-0.1l0.1-0.1l0.1-0.1h0.2h0.2l0.1,0.1l0.1,0.1l0.1,0.1l0.1,0.2l0.1,0.2l0.1,0.2v0.2v0.2
		L48,101l-0.1,0.2l-0.1,0.2l-0.1,0.1l-0.1,0.1l-0.1,0L47.3,101.6z"/>
	<polygon class="st0" points="76.9,102.4 76.9,98.7 77.8,98.7 77.8,99 78,98.8 78.3,98.7 78.5,98.6 78.7,98.6 78.9,98.6 79.1,98.6 
		79.3,98.7 79.4,98.8 79.2,99.7 79,99.6 78.9,99.6 78.7,99.5 78.5,99.5 78.4,99.5 78.3,99.6 78.1,99.6 78,99.7 78,99.8 77.9,100 
		77.9,100.2 77.8,100.4 77.8,102.4 	"/>
	<path class="st0" d="M78.7,98.5l-0.2,0l-0.2,0.1L78,98.8L77.9,99v-0.3v0h-1v3.8h1v-2.1l0-0.2l0-0.2l0-0.2l0.1-0.1l0.1-0.1l0.1-0.1
		l0.1,0l0.1,0l0.2,0l0.2,0l0.2,0.1l0.1,0.1l0,0l0.2-0.9l0,0l-0.1-0.1l-0.2-0.1l-0.2,0L78.7,98.5L78.7,98.5z M77.9,99L77.9,99
		l0.2-0.2l0.2-0.1l0.2-0.1l0.2,0l0.2,0l0.2,0l0.2,0.1l0.1,0.1l-0.2,0.9L79,99.6l-0.2-0.1l-0.2,0l-0.2,0l-0.1,0l-0.1,0l-0.1,0.1
		L78,99.7L78,99.8l0,0.2l0,0.2l0,0.2v2h-0.9v-3.8h0.9L77.9,99L77.9,99z"/>
	<path class="st0" d="M78.7,98.6l-0.2,0l-0.2,0.1L78,98.8L77.8,99v-0.3h-0.9v3.8h0.9v-2l0-0.2l0-0.2l0-0.2l0.1-0.1l0.1-0.1l0.1-0.1
		l0.1,0l0.1,0l0.2,0l0.2,0l0.2,0.1l0.1,0.1l0.2-0.9l-0.1-0.1l-0.2-0.1l-0.2,0L78.7,98.6L78.7,98.6z M77.8,99L77.8,99l0.2-0.2
		l0.2-0.1l0.2-0.1l0.2,0l0.2,0l0.2,0l0.2,0.1l0.1,0.1l-0.2,0.9L79,99.6l-0.2-0.1l-0.2,0l-0.2,0l-0.1,0l-0.1,0l-0.1,0.1L78,99.7
		l-0.1,0.1l0,0.2l0,0.2l0,0.2v2h-0.9v-3.8h0.9L77.8,99L77.8,99L77.8,99z"/>
	<polygon class="st0" points="70.8,102.4 70.4,100.9 70.2,100 70,100.9 69.5,102.4 68.7,102.4 68.7,102.4 67.7,98.7 68.6,98.7 
		69,100.1 69.2,101 69.3,100.5 69.4,100 69.8,98.7 70.6,98.7 71,100 71.2,101 71.4,100 71.8,98.7 72.7,98.7 71.6,102.4 	"/>
	<path class="st0" d="M72.7,98.6h-1l-0.3,1.4l0,0l0,0l-0.2,0.9L71,100l-0.4-1.4h-0.8l-0.4,1.4l-0.1,0.5l-0.1,0.5l-0.2-0.9l-0.3-1.4
		h-1l1.1,3.8v0v0h0.8l0.4-1.6l0.2-0.8l0.2,0.8l0.4,1.6h0.8L72.7,98.6L72.7,98.6z M71.2,101L71.2,101l0.2-1l0.3-1.4h0.9l-1.1,3.8
		h-0.8l-0.4-1.6l-0.2-0.8l-0.2,0.9l-0.4,1.5h-0.8v0l-1.1-3.8h1l0.3,1.4l0.2,0.9l0.1-0.5l0.1-0.5l0.4-1.4h0.8L71,100L71.2,101z"/>
	<path class="st0" d="M72.7,98.7h-0.9l-0.3,1.4l-0.2,1l-0.2-1l-0.4-1.4h-0.8l-0.4,1.4l-0.1,0.5l-0.1,0.5l-0.2-0.9l-0.3-1.4h-1
		l1.1,3.8v0h0.8l0.4-1.5l0.2-0.9l0.2,0.8l0.4,1.6h0.8L72.7,98.7L72.7,98.7z M71.4,100L71.4,100l0.3-1.4h0.9l-1.1,3.8h-0.8l-0.4-1.6
		l-0.2-0.9l-0.2,0.9l-0.4,1.5h-0.8v0v0l-1.1-3.8h1l0.3,1.4l0.2,1l0.1-0.5l0.1-0.5l0.4-1.4h0.8L71,100l0.2,1L71.4,100z"/>
	<path class="st0" d="M74.3,102.5l-0.3-0.1l-0.3-0.2l-0.2-0.2l-0.2-0.3l-0.2-0.3l-0.1-0.4l0-0.4l0-0.4l0.1-0.4l0.2-0.3l0.2-0.3
		l0.2-0.2l0.3-0.2l0.3-0.1l0.4,0l0.3,0l0.3,0.1l0.3,0.2l0.2,0.2l0.2,0.3l0.1,0.3l0.1,0.4l0,0.4l0,0.4l-0.1,0.4l-0.1,0.3l-0.2,0.3
		l-0.2,0.2l-0.3,0.2l-0.3,0.1l-0.3,0L74.3,102.5L74.3,102.5z M74.3,99.5L74.3,99.5l-0.1,0.1l-0.1,0.1L74,99.9l-0.1,0.2l0,0.2v0.2
		v0.2l0,0.2l0.1,0.2l0.1,0.2l0.1,0.1l0.1,0.1l0.2,0l0.2,0l0.2,0l0.1,0l0.1-0.1l0.1-0.1l0.1-0.2l0.1-0.2l0-0.2v-0.2v-0.2l0-0.2
		l-0.1-0.2l-0.1-0.2l-0.1-0.1l-0.1-0.1l-0.1-0.1h-0.2h-0.2L74.3,99.5z"/>
	<path class="st0" d="M74.6,98.5l-0.4,0l-0.3,0.1l-0.3,0.2l-0.2,0.2l-0.2,0.3L73,99.8l-0.1,0.4l0,0.4l0,0.4l0.1,0.4l0.2,0.3l0.2,0.3
		l0.2,0.2l0.3,0.2l0.3,0.1l0.4,0l0.3,0l0.3-0.1l0.3-0.2l0.2-0.2l0.2-0.3l0.1-0.3l0.1-0.4l0-0.4l0-0.4l-0.1-0.4l-0.1-0.3l-0.2-0.3
		l-0.2-0.2l-0.3-0.2L75,98.6L74.6,98.5L74.6,98.5z M74.6,98.6L74.6,98.6l0.3,0l0.3,0.1l0.3,0.2l0.2,0.2l0.2,0.3l0.1,0.3l0.1,0.4
		l0,0.4l0,0.4l-0.1,0.4l-0.1,0.3l-0.2,0.3l-0.2,0.2l-0.3,0.2l-0.3,0.1l-0.3,0l-0.4,0l-0.3-0.1l-0.3-0.2l-0.2-0.2l-0.2-0.3l-0.2-0.3
		l-0.1-0.4l0-0.4l0-0.4l0.1-0.4l0.2-0.3l0.2-0.3l0.2-0.2l0.3-0.2l0.3-0.1L74.6,98.6L74.6,98.6z M74.8,99.5l0.1,0.1l0.1,0.1l0.1,0.1
		l0.1,0.2l0.1,0.2l0,0.2v0.2v0.2l0,0.2l-0.1,0.2l-0.1,0.2l-0.1,0.1l-0.1,0.1l-0.1,0l-0.2,0l-0.2,0l-0.2,0l-0.1-0.1l-0.1-0.1
		l-0.1-0.2l-0.1-0.2l0-0.2v-0.2v-0.2l0-0.2l0.1-0.2l0.1-0.2l0.1-0.1l0.1-0.1l0.2-0.1h0.2L74.8,99.5L74.8,99.5L74.8,99.5z
		 M74.6,101.6L74.6,101.6l-0.2,0l-0.2,0l-0.1-0.1l-0.1-0.1l-0.1-0.2l-0.1-0.2l0-0.2v-0.2v-0.2l0-0.2l0.1-0.2l0.1-0.2l0.1-0.1
		l0.1-0.1l0.2-0.1h0.2h0.2l0.1,0.1l0.1,0.1l0.1,0.1l0.1,0.2l0.1,0.2l0,0.2v0.2v0.2l0,0.2l-0.1,0.2l-0.1,0.2l-0.1,0.1l-0.1,0.1
		l-0.1,0L74.6,101.6z"/>
	<path class="st0" d="M74.6,98.6L74.6,98.6L74.6,98.6l-0.4,0l-0.3,0.1l-0.3,0.2l-0.2,0.2l-0.2,0.3L73,99.8l-0.1,0.4l0,0.4l0,0.4
		l0.1,0.4l0.2,0.3l0.2,0.3l0.2,0.2l0.3,0.2l0.3,0.1l0.4,0l0.3,0l0.3-0.1l0.3-0.2l0.2-0.2l0.2-0.3l0.1-0.3l0.1-0.4l0-0.4l0-0.4
		l-0.1-0.4l-0.1-0.3l-0.2-0.3l-0.2-0.2l-0.3-0.2L75,98.6L74.6,98.6L74.6,98.6z M74.6,102.5L74.6,102.5l-0.4,0l-0.3-0.1l-0.3-0.2
		l-0.2-0.2l-0.2-0.3l-0.2-0.3l-0.1-0.4l0-0.4l0-0.4l0.1-0.4l0.2-0.3l0.2-0.3l0.2-0.2l0.3-0.2l0.3-0.1l0.4,0l0.3,0l0.3,0.1l0.3,0.2
		l0.2,0.2l0.2,0.3l0.1,0.3l0.1,0.4l0,0.4l0,0.4l-0.1,0.4l-0.1,0.3l-0.2,0.3l-0.2,0.2l-0.3,0.2l-0.3,0.1L74.6,102.5L74.6,102.5z
		 M74.8,99.5l0.1,0.1l0.1,0.1l0.1,0.1v0l0.1,0.2l0.1,0.2v0l0,0.2v0.2v0.2l0,0.2l-0.1,0.2v0l-0.1,0.2l-0.1,0.1h0l-0.1,0.1l-0.1,0
		l-0.2,0h0l-0.2,0l-0.2,0l-0.1-0.1v0l-0.1-0.1l-0.1-0.2l-0.1-0.2v0l0-0.2v0v-0.2v-0.2l0-0.2l0.1-0.2v0l0.1-0.2l0.1-0.1l0.1-0.1
		l0.2-0.1h0.2L74.8,99.5L74.8,99.5L74.8,99.5z M74.6,101.6L74.6,101.6l-0.2,0l-0.2,0l-0.1-0.1l-0.1-0.1l-0.1-0.2l-0.1-0.2l0-0.2
		v-0.2v-0.2l0-0.2l0.1-0.2l0.1-0.2l0.1-0.1l0.1-0.1l0.2-0.1h0.2h0.2l0.1,0.1l0.1,0.1l0.1,0.1l0.1,0.2l0.1,0.2l0,0.2v0.2v0.2l0,0.2
		l-0.1,0.2l-0.1,0.2l-0.1,0.1l-0.1,0.1l-0.1,0L74.6,101.6z"/>
	<polygon class="st0" points="54.8,102.4 54,100.7 53.5,101.3 53.5,102.4 52.6,102.4 52.6,97.5 53.5,97.1 53.5,100.1 53.9,99.6 
		54.6,98.7 55.7,98.7 54.7,99.9 55.8,102.4 	"/>
	<path class="st0" d="M53.5,97.1l-1,0.5v4.9h1v-1.1l0.5-0.6l0.8,1.8h1.1l-1.1-2.6l1-1.3h0v0v0h-1.1l-0.7,1l-0.3,0.5V97.1L53.5,97.1z
		 M52.6,102.4L52.6,102.4v-4.9l0.9-0.5v3l0.3-0.5l0.7-1h1.1l-1,1.2l1.1,2.6h-1l-0.8-1.8l-0.5,0.6v1.1L52.6,102.4L52.6,102.4z"/>
	<path class="st0" d="M53.5,97.1l-0.9,0.5v4.9h0.9v-1.1l0.5-0.6l0.8,1.8h1l-1.1-2.6l1-1.2h-1.1l-0.7,1l-0.3,0.5L53.5,97.1L53.5,97.1
		z M52.6,102.4L52.6,102.4v-4.9l0.9-0.5v3l0.3-0.5l0.7-1h1.1l-1,1.2l1.1,2.5h-1l-0.8-1.8l-0.5,0.6v1.1H52.6z"/>
	<rect x="56.4" y="98.7" class="st0" width="0.9" height="3.8"/>
	<path class="st0" d="M56.4,98.7h0.9v3.8h-0.9V98.7L56.4,98.7z M56.4,98.6L56.4,98.6v3.8h0h0.9v-3.8H56.4z"/>
	<path class="st0" d="M56.4,102.4L56.4,102.4L56.4,102.4L56.4,102.4z M56.4,98.7L56.4,98.7h0.9v3.8h-0.9V98.7L56.4,98.7z
		 M56.4,102.4L56.4,102.4h0.9v-3.8h-0.9V102.4z"/>
	<rect x="56.4" y="97.2" class="st0" width="0.9" height="0.9"/>
	<path class="st0" d="M56.4,97.2h0.9v0.9h-0.9V97.2L56.4,97.2z M57.3,97.2L57.3,97.2L57.3,97.2L57.3,97.2L57.3,97.2z M57.3,97.2
		L57.3,97.2h-0.9v1h1L57.3,97.2L57.3,97.2z"/>
	<path class="st0" d="M56.4,97.2h0.9v0.9h-0.9V97.2L56.4,97.2z M56.4,98.1L56.4,98.1h0.9v-0.9h-0.9V98.1z"/>
	<polygon class="st0" points="79.9,97.5 79.9,102.4 80.8,102.4 80.8,97.1 	"/>
	<path class="st0" d="M79.9,97.5l0.9-0.5v5.4h-0.9V97.5L79.9,97.5z M79.9,97.5L79.9,97.5v4.9h0h0.9v-5.4L79.9,97.5z"/>
	<path class="st0" d="M79.9,102.4L79.9,102.4L79.9,102.4L79.9,102.4z M79.9,97.5L79.9,97.5l0.9-0.5v5.4h-0.9V97.5L79.9,97.5z
		 M79.9,97.5L79.9,97.5v4.9h0.9v-5.4L79.9,97.5z"/>
	<polygon class="st0" points="40.4,57.6 99.6,36 99.6,36 99.6,47.2 40.4,57.6 	"/>
	<path class="st0" d="M99.6,36L40.4,57.6l0,0l59.2-10.4L99.6,36L99.6,36z M40.4,57.6L40.4,57.6L40.4,57.6L99.6,36h0v11.2L40.4,57.6z
		"/>
	<path class="st0" d="M99.6,36L99.6,36L40.4,57.6v0l59.1-10.4L99.6,36L99.6,36z M40.5,57.6L40.5,57.6L99.6,36v11.1L40.5,57.6z"/>
	<polygon class="st0" points="40.8,85.4 40.8,64 52.9,64 55.7,68.9 47.2,68.9 47.2,72.5 54.9,72.5 54.9,77 47.2,77 47.2,80.5 
		57.9,80.5 57.9,85.4 	"/>
	<path class="st0" d="M52.9,64H40.8v21.4h17.1v-4.9H47.2V77h7.8v-4.5h-7.8v-3.5h8.6L52.9,64L52.9,64z M40.8,85.4L40.8,85.4V64h12.1
		l2.8,4.9h-8.6v3.5h7.8V77h-7.8v3.5h10.7v4.9H40.8z"/>
	<path class="st0" d="M52.9,64H40.8v21.4h17.1v-4.9H47.2V77h7.8v-4.5h-7.8v-3.5h8.6L52.9,64L52.9,64z M40.8,85.4L40.8,85.4V64h12.1
		l2.8,4.9h-8.6v3.5h7.8v4.5h-7.8v0h0h0v3.5h10.7v4.9H40.8z"/>
	<polygon class="st0" points="62.4,85.4 62.4,77 54.9,64 62,64 65.6,71 69.2,64 76.3,64 68.8,77 68.8,85.4 	"/>
	<path class="st0" d="M76.3,64h-7l0,0l-3.6,7L62,64h-7.1L62.4,77v8.4h6.4V77L76.3,64L76.3,64z M65.6,71L65.6,71l3.6-7h7L68.8,77v8.4
		h-6.4V77L54.9,64H62L65.6,71z"/>
	<path class="st0" d="M76.3,64h-7l-3.6,7L62,64h-7.1L62.4,77v8.4h6.4V77L76.3,64L76.3,64z M69.2,64L69.2,64h7L68.8,77v8.4h-6.4V77
		L54.9,64H62l3.6,7L69.2,64z"/>
	<path class="st0" d="M63.3,98.6L63,98.7l-0.3,0.2l-0.2,0.2l-0.2,0.3l-0.1,0.3l-0.1,0.4l0,0.4l0,0.4l0.1,0.4l0.1,0.4l0.2,0.3
		l0.2,0.2l0.2,0.2l0.3,0.1l0.3,0h0.2l0.2-0.1l0.2-0.1l0.2-0.2v0.1v0.3l-0.1,0.2l-0.1,0.1l-0.2,0.1l-0.2,0.1l-0.3,0.1l-0.4,0h0h0
		l0.3,0.8l0.4,0l0.4-0.1l0.3-0.1l0.1-0.1v0l0.1-0.1l0.1-0.1l0.1-0.1l0.1-0.3l0.1-0.4l0-0.4v-3.4h-1v0.3l-0.2-0.2l-0.2-0.1l-0.2-0.1
		l-0.2,0L63.3,98.6L63.3,98.6z M63.5,101.6L63.5,101.6l-0.1-0.1l-0.1-0.1l-0.1-0.2l-0.1-0.2l0-0.3l0-0.3l0-0.3l0-0.3l0.1-0.2
		l0.1-0.1l0.1-0.1l0.1-0.1l0.1,0h0.1l0.2,0l0.2,0.1l0.1,0.1l0.1,0.1v1.5l-0.1,0.1l-0.2,0.1l-0.2,0.1h-0.2h-0.1L63.5,101.6
		L63.5,101.6z M64.4,99.8L64.4,99.8L64.4,99.8L64.4,99.8L64.4,99.8z M59.8,98.6L59.8,98.6l-0.2,0.1h0l-0.2,0.1l-0.2,0.2v-0.3v0h-1
		v3.8h1v-2.1h0h0h0h0l0-0.2l0-0.2l0-0.1l0.1-0.1l0.1-0.1l0.1-0.1l0.2-0.1h0.2H60l0.1,0.1l0.1,0.1l0.1,0.1l0.1,0.1l0.1,0.2l0,0.2v0.2
		v2.1h1v-2.2l0-0.4l-0.1-0.3l-0.1-0.3L61.2,99l-0.2-0.2l-0.2-0.1l-0.3-0.1l-0.3,0L59.8,98.6z"/>
	<g>
		<g>
			<path id="SVGID_1_" class="st0" d="M59.8,98.6l-0.2,0.1l-0.2,0.1l-0.2,0.2v-0.3v0h-1v3.8h1v-2.1h0h0h0h0l0-0.2l0-0.2l0-0.1
				l0.1-0.1l0.1-0.1l0.1-0.1l0.2-0.1h0.2H60l0.1,0.1l0.1,0.1l0.1,0.1l0.1,0.1l0.1,0.2l0,0.2v0.2v2.1h1v-2.2l0-0.4l-0.1-0.3l-0.1-0.3
				L61.1,99l-0.2-0.2l-0.2-0.1l-0.3-0.1l-0.3,0L59.8,98.6L59.8,98.6z M64.4,99.8L64.4,99.8L64.4,99.8L64.4,99.8L64.4,99.8z
				 M63.5,101.6L63.5,101.6L63.5,101.6l-0.2-0.2l-0.1-0.2l-0.1-0.2l0-0.3l0-0.3l0-0.3l0-0.3l0.1-0.2l0.1-0.1l0.1-0.1l0.1-0.1l0.1,0
				h0.1l0.2,0l0.2,0.1l0.1,0.1l0.1,0.1v1.5l-0.1,0.1l-0.2,0.1l-0.2,0.1h-0.2h-0.1L63.5,101.6L63.5,101.6z M63.3,98.6L63.3,98.6
				L63,98.7l-0.3,0.2l-0.2,0.2l-0.2,0.3l-0.1,0.3l-0.1,0.4l0,0.4l0,0.4l0.1,0.4l0.1,0.4l0.2,0.3l0.2,0.2l0.2,0.2l0.3,0.1l0.3,0h0.2
				h0l0.2-0.1l0.2-0.1l0.2-0.2v0.1v0.3l-0.1,0.2l-0.1,0.1l-0.2,0.1l-0.2,0.1l-0.3,0.1l-0.4,0h0h0l0.3,0.7H64l0.3-0.1l0.3-0.1
				l0.1-0.1l0.1-0.1l0.1-0.1l0.1-0.1l0.1-0.3l0.1-0.4l0-0.4v-3.4h-1v0.3l-0.2-0.2l-0.2-0.1l-0.2-0.1l-0.2,0L63.3,98.6z"/>
		</g>
		<g>
			<defs>
				<path id="SVGID_2_" d="M59.8,98.6l-0.2,0.1l-0.2,0.1l-0.2,0.2v-0.3v0h-1v3.8h1v-2.1h0h0h0h0l0-0.2l0-0.2l0-0.1l0.1-0.1l0.1-0.1
					l0.1-0.1l0.2-0.1h0.2H60l0.1,0.1l0.1,0.1l0.1,0.1l0.1,0.1l0.1,0.2l0,0.2v0.2v2.1h1v-2.2l0-0.4l-0.1-0.3l-0.1-0.3L61.1,99
					l-0.2-0.2l-0.2-0.1l-0.3-0.1l-0.3,0L59.8,98.6L59.8,98.6z M64.4,99.8L64.4,99.8L64.4,99.8L64.4,99.8L64.4,99.8z M63.5,101.6
					L63.5,101.6L63.5,101.6l-0.2-0.2l-0.1-0.2l-0.1-0.2l0-0.3l0-0.3l0-0.3l0-0.3l0.1-0.2l0.1-0.1l0.1-0.1l0.1-0.1l0.1,0h0.1l0.2,0
					l0.2,0.1l0.1,0.1l0.1,0.1v1.5l-0.1,0.1l-0.2,0.1l-0.2,0.1h-0.2h-0.1L63.5,101.6L63.5,101.6z M63.3,98.6L63.3,98.6L63,98.7
					l-0.3,0.2l-0.2,0.2l-0.2,0.3l-0.1,0.3l-0.1,0.4l0,0.4l0,0.4l0.1,0.4l0.1,0.4l0.2,0.3l0.2,0.2l0.2,0.2l0.3,0.1l0.3,0h0.2h0
					l0.2-0.1l0.2-0.1l0.2-0.2v0.1v0.3l-0.1,0.2l-0.1,0.1l-0.2,0.1l-0.2,0.1l-0.3,0.1l-0.4,0h0h0l0.3,0.7H64l0.3-0.1l0.3-0.1l0.1-0.1
					l0.1-0.1l0.1-0.1l0.1-0.1l0.1-0.3l0.1-0.4l0-0.4v-3.4h-1v0.3l-0.2-0.2l-0.2-0.1l-0.2-0.1l-0.2,0L63.3,98.6z"/>
			</defs>
			<clipPath id="SVGID_3_">
				<use xlink:href="#SVGID_2_"  style="overflow:visible;"/>
			</clipPath>
			<g transform="matrix(1 0 0 1 0 3.814697e-06)" class="st1">
			</g>
		</g>
	</g>
</g>
</svg>
