<?xml version="1.0" encoding="utf-8"?>
<!-- Generator: Adobe Illustrator 23.0.0, SVG Export Plug-In . SVG Version: 6.00 Build 0)  -->
<svg version="1.1" id="_x3C_Layer_x3E_" xmlns="http://www.w3.org/2000/svg" xmlns:xlink="http://www.w3.org/1999/xlink" x="0px"
	 y="0px" viewBox="0 0 140 140" style="enable-background:new 0 0 140 140;" xml:space="preserve">
<style type="text/css">
	.st0{fill:#333333;}
</style>
<g>
	<path class="st0" d="M127.5,56.5H91.2c-7.5-11.8-23.1-15.3-34.9-7.8c-3.1,2-5.8,4.7-7.8,7.8H12.5l3.7,3.7h30.5
		c-0.6,1.3-1,2.7-1.3,4.1h-25l3.7,3.7h20.7c-0.1,0.7-0.1,1.4-0.1,2.1s0,1.4,0.1,2.1H28.1l3.7,3.7h13.5c0.3,1.4,0.8,2.8,1.4,4.1H35.9
		l3.7,3.7h9c7.5,11.8,23.1,15.2,34.9,7.7c3.1-2,5.7-4.6,7.7-7.7h9.2l3.7-3.7H93.2c0.6-1.3,1-2.7,1.4-4.1h13.7l3.7-3.7H95.1
		c0.1-0.7,0.1-1.4,0.1-2.1s0-1.4-0.1-2.1H116l3.7-3.7H94.5c-0.3-1.4-0.8-2.8-1.3-4.1h30.7L127.5,56.5z M70,91.6
		C58.1,91.6,48.4,82,48.4,70S58.1,48.5,70,48.5S91.6,58.1,91.6,70S81.9,91.6,70,91.6L70,91.6z"/>
	<polygon class="st0" points="58.9,73.2 56,64.3 52.7,64.3 52.7,75.7 55.1,75.7 55.1,67.3 57.6,75.7 60.1,75.7 62.7,67.3 62.7,75.7 
		65.1,75.7 65.1,64.3 61.8,64.3 	"/>
	<polygon class="st0" points="80,72.7 75.5,64.3 72.8,64.3 72.8,75.7 75,75.7 75,67.7 79.6,75.8 82.3,75.7 82.3,64.3 80.1,64.3 	"/>
	<rect x="67.8" y="64.3" class="st0" width="2.3" height="11.4"/>
	<rect x="84.9" y="64.3" class="st0" width="2.3" height="11.4"/>
</g>
</svg>
