<?xml version="1.0" encoding="utf-8"?>
<!-- Generator: Adobe Illustrator 23.0.0, SVG Export Plug-In . SVG Version: 6.00 Build 0)  -->
<svg version="1.1" id="Layer_1" xmlns="http://www.w3.org/2000/svg" xmlns:xlink="http://www.w3.org/1999/xlink" x="0px" y="0px"
	 viewBox="0 0 140 140" style="enable-background:new 0 0 140 140;" xml:space="preserve">
<style type="text/css">
	.st0{fill:#333333;}
</style>
<title>img-walmart</title>
<g id="Layer_1-2">
	<path class="st0" d="M47.1,72.3v-13h-3.3v16.5h3.3V72.3z M129.4,75.1c-0.3,0-0.6,0.3-0.6,0.6s0.3,0.6,0.6,0.6
		c0.3,0,0.6-0.3,0.6-0.6l0,0C130,75.3,129.7,75.1,129.4,75.1L129.4,75.1L129.4,75.1L129.4,75.1z M129.4,75.2c0.3,0,0.5,0.2,0.5,0.4
		s-0.2,0.5-0.4,0.5c-0.3,0-0.5-0.2-0.5-0.4l0,0C129,75.4,129.1,75.3,129.4,75.2L129.4,75.2L129.4,75.2z M129.3,75.7L129.3,75.7
		C129.4,75.7,129.4,75.7,129.3,75.7L129.3,75.7c0.1,0.2,0.1,0.2,0.1,0.3h0.2c0-0.1,0-0.1,0-0.2s-0.1-0.2-0.1-0.2l0,0
		c0.1,0,0.1-0.1,0.1-0.2v-0.1c-0.1,0-0.2,0-0.2,0h-0.3v0.6h0.2V75.7L129.3,75.7L129.3,75.7z M129.3,75.4L129.3,75.4
		c0.2,0,0.2,0,0.2,0.1s0,0.1-0.2,0.1l0,0V75.4L129.3,75.4L129.3,75.4z M49.5,63.4v12.3h3.3v-7.3c0-0.3,0.1-0.7,0.2-1
		c0.3-0.9,1.1-1.5,2.1-1.6c1.4,0,2,1.1,2,2.8v7h3.4v-7.4c0-0.3,0.1-0.7,0.2-1c0.3-0.9,1.1-1.5,2-1.5c1.4,0,2,1.1,2,3.1v6.8H68v-7.4
		c0-3.9-2-5.3-4.2-5.3c-0.9,0-1.7,0.3-2.5,0.7c-0.6,0.4-1.1,0.9-1.5,1.5l0,0c-0.6-1.4-2-2.3-3.5-2.2c-1.5-0.1-2.9,0.7-3.6,2l0,0
		v-1.6h-3.2C49.5,63.3,49.5,63.4,49.5,63.4z M82.6,63.4v12.3H86v-6.3c0-0.3,0-0.6,0.1-0.9c0.3-1.3,1.5-2.2,2.7-2.2
		c0.3,0,0.7,0,1,0.1v-3.3C89.6,63,89.4,63,89.1,63c-1.6,0.1-3,1.1-3.4,2.7l0,0v-2.3L82.6,63.4C82.6,63.3,82.6,63.4,82.6,63.4z
		 M91.3,59.3v12.1c-0.2,1.3,0.3,2.6,1,3.6c0.8,0.7,1.7,1,2.7,1c0.9,0,1.6-0.1,2.4-0.3v-2.6c-0.4,0.1-0.9,0.2-1.4,0.2
		c-1.1,0-1.5-0.8-1.5-2.2v-4.6h2.9v-3.2h-2.9v-3.9L91.3,59.3z M41.5,72.8c0,1,0.1,2,0.2,3c-2.8,0.8-3.3-1.4-3.3-1.4h-0.1
		c-0.9,1-2.2,1.6-3.6,1.5c-2.1,0.2-3.9-1.5-4-3.5l0,0v-0.2c0-3.2,2.8-4.7,7.4-4.7v-0.1c0-0.8-0.3-1.9-2.4-1.9
		c-1.2,0-2.4,0.3-3.4,0.9l-0.7-2.1c1.5-0.8,3-1.2,4.6-1.1c4.1,0,5.3,2.5,5.3,5.3L41.5,72.8L41.5,72.8L41.5,72.8z M38.1,69.8
		c-2.1,0-4,0.4-4,2.1c-0.1,0.9,0.6,1.5,1.4,1.6h0.3c1,0,1.9-0.7,2.1-1.6c0.1-0.3,0.1-0.4,0.1-0.7L38.1,69.8L38.1,69.8L38.1,69.8z
		 M10,59.3c0,0,3,12,3.4,14c0.6,2.2,1.5,3.1,4.4,2.6l1.8-7.5c0.4-1.6,0.8-3.3,1-5.1l0,0c0.2,1.7,0.5,3.3,0.9,5c0,0,0.8,3.3,1.1,5.1
		c0.3,1.8,1.5,2.9,4.3,2.3l4.5-16.5h-3.5l-1.5,7.1c-0.4,2.1-0.8,3.7-1,5.6l0,0c-0.3-1.9-0.6-3.4-1-5.5l-1.6-7.2h-3.7l-1.6,7
		c-0.4,2.1-0.9,3.9-1.2,5.7l0,0c-0.3-1.7-0.7-3.9-1.1-6c0,0-1-5.1-1.4-6.8H10L10,59.3z M80.3,72.8c0,1,0.1,2,0.2,3
		c-2.8,0.8-3.3-1.4-3.3-1.4l0,0c-0.9,1-2.3,1.6-3.7,1.5c-2.1,0.2-3.9-1.5-4-3.5l0,0v-0.2c0-3.2,2.8-4.7,7.4-4.7v-0.2
		c0-0.8-0.3-1.9-2.4-1.9c-1.2,0-2.4,0.3-3.4,0.9l-0.7-2.2c1.5-0.8,3-1.1,4.6-1.1c4.1,0,5.3,2.5,5.3,5.3L80.3,72.8L80.3,72.8
		L80.3,72.8z M76.9,69.8c-2.1,0-4,0.4-4,2.1c-0.1,0.9,0.6,1.5,1.4,1.6h0.3c1,0,1.9-0.7,2.2-1.6c0.1-0.2,0.1-0.4,0.2-0.7V69.8
		L76.9,69.8L76.9,69.8z M111.7,69.8c-0.3-0.5-0.8-0.8-1.4-0.7l-6.9,3.3c-0.7,0.6-0.8,1.6-0.3,2.4c0.3,0.9,1.3,1.3,2.1,1l6.2-4.3
		c0.3-0.4,0.3-1,0-1.5l0,0L111.7,69.8z M119.8,69.8c-0.3,0.4-0.3,1,0,1.5l6.2,4.4c0.9,0.3,1.8-0.2,2.1-1c0.5-0.7,0.5-1.7-0.2-2.3
		l-6.8-3.2C120.7,69.1,120.1,69.3,119.8,69.8L119.8,69.8L119.8,69.8z M115.8,72.1c-0.6-0.1-1.1,0.3-1.4,0.8l-0.7,7.5
		c0.4,1.1,1.6,1.6,2.7,1.2c0.6-0.2,1-0.7,1.2-1.2l-0.7-7.5c-0.2-0.5-0.8-0.9-1.4-0.8H115.8L115.8,72.1z M119.8,65.1
		c0.3,0.5,0.8,0.8,1.4,0.7l6.9-3.1c0.7-0.6,0.8-1.6,0.2-2.3c-0.3-0.9-1.3-1.3-2.1-1l-6.2,4.3C119.5,64.1,119.5,64.7,119.8,65.1
		L119.8,65.1L119.8,65.1z M111.7,65.1c0.3-0.4,0.3-1,0-1.5l-6.2-4.2c-0.9-0.3-1.8,0.2-2.2,1c-0.6,0.7-0.5,1.7,0.2,2.3l6.8,3.2
		C110.8,66,111.4,65.7,111.7,65.1L111.7,65.1L111.7,65.1z M115.7,62.8c0.6,0.1,1.1-0.3,1.4-0.8l0.7-7.4c-0.4-1.1-1.6-1.6-2.7-1.2
		c-0.6,0.2-1,0.7-1.2,1.2l0.7,7.5c0.2,0.5,0.8,0.9,1.4,0.8l0,0L115.7,62.8z M98.7,84.9c0.4,0,0.8-0.3,0.8-0.7c0-0.4-0.3-0.8-0.7-0.8
		c-0.4,0-0.8,0.3-0.8,0.7l0,0l0,0C97.9,84.6,98.3,84.9,98.7,84.9C98.6,84.9,98.6,84.9,98.7,84.9L98.7,84.9L98.7,84.9z M95.1,84.9
		h1.2V83c0-0.1,0-0.2,0-0.3c0.1-0.3,0.4-0.7,0.9-0.6c0.1,0,0.3,0,0.3,0V81h-0.3c-0.4,0-0.9,0.3-1,0.8l0,0v-0.7H95V85L95.1,84.9z
		 M94.2,83.3c0-0.2,0-0.3,0-0.4c0.1-0.9-0.5-1.8-1.5-1.9h-0.3c-1,0-2,0.8-2,1.9l0,0l0,0l0,0l0,0v0.2c-0.1,1,0.7,1.9,1.7,2h0.3
		c0.5,0,1-0.1,1.5-0.3L93.9,84c-0.3,0.1-0.7,0.2-1,0.2c-0.5,0.1-0.9-0.3-1.1-0.8L94.2,83.3L94.2,83.3z M91.7,82.5
		c0-0.4,0.3-0.8,0.8-0.8c0.3,0,0.7,0.3,0.7,0.7v0.1C93.1,82.5,91.7,82.5,91.7,82.5z M87.8,80.3V81h-0.5v0.9h0.5v1.5
		c-0.1,0.4,0.1,0.9,0.3,1.1s0.6,0.3,0.9,0.3c0.3,0,0.5,0,0.8-0.1v-0.9c-0.1,0-0.3,0-0.3,0c-0.3,0-0.5-0.2-0.5-0.7v-1.4h0.9V81H89v-1
		L87.8,80.3z M84.7,80.3V81h-0.5v0.9h0.4v1.5c-0.1,0.4,0.1,0.9,0.3,1.2c0.3,0.3,0.6,0.3,0.9,0.3c0.3,0,0.5,0,0.8-0.1V84
		c-0.1,0-0.3,0-0.3,0c-0.3,0-0.5-0.2-0.5-0.7v-1.4h0.9v-0.9h-0.8V80L84.7,80.3z M83.6,83.3c0-0.2,0-0.3,0-0.4
		c0.1-0.9-0.5-1.8-1.5-1.9H82c-1,0-2,0.8-2,1.9l0,0l0,0l0,0l0,0v0.2c-0.1,1,0.7,1.9,1.7,2H82c0.4,0,0.9-0.1,1.4-0.3V84
		c-0.3,0.1-0.7,0.2-1,0.2c-0.4,0.1-0.9-0.2-1.1-0.6h2.5L83.6,83.3z M81.1,82.5c0-0.4,0.3-0.8,0.8-0.8c0.3,0,0.7,0.3,0.7,0.7v0.1
		C82.6,82.5,81.1,82.5,81.1,82.5z M75.5,83.7v1.1h1v-0.4l0,0c0.3,0.4,0.7,0.7,1.2,0.6c1,0,1.8-0.9,1.8-1.9l0,0l0,0V83
		c0.2-0.9-0.5-1.8-1.5-2h-0.2c-0.4,0-0.9,0.2-1.2,0.5l0,0v-2.2h-1.2V83.7L75.5,83.7L75.5,83.7z M76.7,82.6c0-0.1,0-0.2,0-0.3
		c0.1-0.3,0.3-0.6,0.7-0.6c0.6,0.2,0.9,0.8,0.8,1.4c-0.1,0.3-0.3,0.6-0.7,0.8h-0.2c-0.3,0-0.6-0.2-0.7-0.5c0-0.1,0-0.2,0-0.2
		L76.7,82.6L76.7,82.6z M73.1,83.3c0-0.2,0-0.3,0-0.4c0.1-0.9-0.6-1.8-1.5-1.9h-0.2c-1,0-2,0.8-2,1.9l0,0l0,0l0,0l0,0v0.2
		c-0.1,1,0.7,1.9,1.7,2h0.3c0.4,0,0.9-0.1,1.4-0.3L72.7,84c-0.3,0.1-0.7,0.2-1,0.2c-0.5,0.1-0.9-0.3-1.1-0.7h2.6L73.1,83.3z
		 M70.6,82.5c0-0.4,0.3-0.7,0.8-0.7c0.3,0,0.7,0.3,0.7,0.7v0.1L70.6,82.5L70.6,82.5z M65.2,81l1.4,3.9h1.2l1.5-3.9h-1.4l-0.6,1.8
		c-0.1,0.3-0.2,0.6-0.2,0.9l0,0c-0.1-0.3-0.2-0.6-0.3-0.9L66.3,81H65.2L65.2,81z M64.5,80.1c0-0.3-0.3-0.6-0.6-0.6l0,0
		c-0.3,0-0.6,0.3-0.6,0.6s0.3,0.6,0.6,0.6l0,0l0,0C64.2,80.7,64.5,80.3,64.5,80.1L64.5,80.1L64.5,80.1z M64.5,84.9v-3.9h-1.3v3.9
		H64.5z M59.1,79.6v5.3h3.3v-1h-2.1v-4.3H59.1L59.1,79.6z M55.8,84.9c0.4,0,0.7-0.3,0.7-0.8c0-0.4-0.3-0.7-0.8-0.7
		c-0.3,0-0.7,0.3-0.7,0.7l0,0C55,84.5,55.3,84.9,55.8,84.9C55.7,84.9,55.7,84.9,55.8,84.9L55.8,84.9L55.8,84.9z M50.5,80.9l1.5,3.5
		c0,0.1,0,0.2,0,0.2c0,0.1,0,0.1,0,0.2c-0.1,0.2-0.3,0.3-0.5,0.5c-0.2,0.1-0.3,0.2-0.5,0.2l0.2,1.2c0.4-0.1,0.9-0.3,1.2-0.5
		c0.7-0.7,1.1-1.6,1.4-2.6l0.9-2.6h-1.4l-0.5,1.9c0,0.3-0.1,0.5-0.2,0.7l0,0c0-0.3-0.1-0.5-0.2-0.7L51.8,81L50.5,80.9L50.5,80.9z
		 M50.2,83.4c0-0.2,0-0.3,0-0.4c0.1-0.9-0.5-1.8-1.5-1.9h-0.3c-1,0-2,0.8-2,1.9l0,0l0,0l0,0l0,0v0.2c-0.1,1,0.7,1.9,1.7,2h0.3
		c0.5,0,1-0.1,1.5-0.3l-0.2-0.8c-0.3,0.1-0.7,0.2-1,0.2c-0.5,0.1-0.9-0.3-1.1-0.7h2.4C50.2,83.6,50.2,83.4,50.2,83.4z M47.6,82.6
		c0-0.4,0.3-0.8,0.8-0.8c0.3,0,0.7,0.3,0.7,0.7v0.1C49.1,82.6,47.6,82.6,47.6,82.6z M42,84.9h1.2v-2.3c0-0.1,0-0.2,0-0.3
		c0.1-0.3,0.3-0.4,0.6-0.4c0.3,0,0.7,0.3,0.6,0.7c0,0.1,0,0.1,0,0.2v2.1h1.4v-2.2c0.2-0.7-0.3-1.5-1-1.6l0,0h-0.3
		c-0.5,0-0.9,0.3-1.2,0.6l0,0v-0.6H42C42,81.1,42,84.9,42,84.9z M41.3,83c0.1-1-0.7-2-1.7-2h-0.2c-1.1-0.2-2.1,0.7-2.1,1.7
		c0,0.1,0,0.2,0,0.3c-0.1,1,0.8,2,1.8,2h0.3C40.3,84.9,41.3,84.1,41.3,83L41.3,83L41.3,83z M38.5,83c-0.1-0.5,0.3-1,0.8-1.1l0,0
		c0.5,0.1,0.9,0.6,0.8,1.2l0,0c0.1,0.5-0.3,1-0.7,1.1l0,0C38.8,84,38.5,83.6,38.5,83L38.5,83L38.5,83z M30.7,84.9h1.2v-2.3
		c0-0.1,0-0.2,0-0.3c0.1-0.3,0.3-0.4,0.6-0.4c0.3,0,0.6,0.3,0.6,0.7v2.3h1.2v-2.2c0-0.1,0-0.2,0-0.3c0.1-0.3,0.3-0.4,0.6-0.4
		c0.4,0,0.6,0.3,0.6,0.9v2.1h1.2v-2.2c0.2-0.7-0.3-1.5-0.9-1.6c-0.1,0-0.3-0.1-0.3-0.1c-0.3,0-0.5,0.1-0.8,0.2
		c-0.2,0.1-0.3,0.3-0.5,0.4l0,0c-0.2-0.4-0.6-0.7-1-0.7s-0.9,0.2-1.2,0.6l0,0v-0.5h-1.3L30.7,84.9L30.7,84.9z M28.3,83.4
		c0-0.2,0-0.3,0-0.4c0.1-0.9-0.6-1.8-1.5-1.9l0,0h-0.3c-1,0-1.9,0.9-1.9,2l0,0l0,0c-0.1,1,0.7,1.9,1.7,2h0.3c0.5,0,0.9-0.1,1.4-0.3
		L27.8,84c-0.3,0.1-0.7,0.2-1,0.2c-0.5,0.1-0.9-0.3-1.1-0.8H28.3L28.3,83.4z M25.8,82.6c0-0.4,0.3-0.8,0.8-0.8
		c0.3,0,0.7,0.3,0.7,0.7v0.1C27.2,82.6,25.8,82.6,25.8,82.6z M20.4,81.1l1.4,3.9H23l1.5-3.9h-1.4l-0.4,1.8c-0.1,0.3-0.2,0.6-0.2,0.9
		l0,0c-0.1-0.3-0.2-0.6-0.3-0.9l-0.5-1.8H20.4z M19.9,82.7c0.1-0.9-0.5-1.5-1.3-1.7c-0.1,0-0.3,0-0.3,0c-0.5,0-1,0.1-1.5,0.3
		l0.3,0.8c0.3-0.2,0.7-0.3,1.1-0.3c0.6,0,0.7,0.3,0.7,0.5l0,0c-1.4,0-2.3,0.5-2.3,1.5c0,0.7,0.5,1.2,1.2,1.2l0,0h0.1
		c0.4,0,0.9-0.2,1.1-0.5l0,0l0.1,0.4H20c0-0.3,0-0.6,0-0.9L19.9,82.7L19.9,82.7z M18.7,83.6c0,0.1,0,0.2,0,0.2
		c-0.1,0.3-0.3,0.4-0.6,0.4s-0.4-0.2-0.5-0.3v-0.1c0-0.4,0.5-0.6,1.1-0.6V83.6L18.7,83.6L18.7,83.6z M12.4,83.7
		c0.4,0.2,0.9,0.3,1.4,0.3c0.6,0,0.9-0.3,0.9-0.6c-0.1-0.4-0.4-0.8-0.9-0.8c-0.9-0.1-1.5-0.9-1.5-1.8c0.1-0.9,0.9-1.5,1.8-1.5l0,0
		h0.3c0.4,0,0.9,0.1,1.4,0.3l-0.3,1c-0.3-0.2-0.8-0.3-1.1-0.3c-0.3-0.1-0.7,0.2-0.8,0.5l0,0c0,0.3,0.3,0.5,1,0.8
		c0.8,0.2,1.3,0.9,1.3,1.6c-0.1,1-0.9,1.7-1.9,1.7h-0.3c-0.5,0-1-0.1-1.5-0.3L12.4,83.7z"/>
</g>
</svg>
