<?xml version="1.0" encoding="utf-8"?>
<!-- Generator: Adobe Illustrator 23.0.0, SVG Export Plug-In . SVG Version: 6.00 Build 0)  -->
<svg version="1.1" id="_x3C_Layer_x3E_" xmlns="http://www.w3.org/2000/svg" xmlns:xlink="http://www.w3.org/1999/xlink" x="0px"
	 y="0px" viewBox="0 0 140 140" style="enable-background:new 0 0 140 140;" xml:space="preserve">
<style type="text/css">
	.st0{fill-rule:evenodd;clip-rule:evenodd;fill:#333333;}
</style>
<g>
	<path class="st0" d="M88.9,59.1c0.6-3.6-1.7-6.4-4.5-8.4c-3.9-2.8-8.2-4.5-12.7-5.8l0,0v46.9l0,0c2-1.7,4-3.7,5.9-5.7
		c4.1-4.5,7.8-9.1,9.4-14.6c0.6-2.5,0.3-5.3-1.8-7C87,63.1,88.7,61.3,88.9,59.1L88.9,59.1L88.9,59.1L88.9,59.1z M81.2,75.3
		c-1.4,2.5-3.3,4.9-5.5,7l0,0l0-13.4l0,0c1.5-1.1,3.1-2.1,5-2.2c0.8,0,1.4,0.3,1.9,0.8C84.2,70.2,82.2,73,81.2,75.3L81.2,75.3
		L81.2,75.3L81.2,75.3z M85,58c-0.4,2.1-2.7,3.3-4.4,4.2c-1.7,0.8-3.3,1.5-5.1,2.2l0,0V50.7l0,0c2.7,0.8,5.1,2.2,7.4,3.8
		C84,55.3,85.4,56.4,85,58L85,58L85,58L85,58z"/>
	<path class="st0" d="M68.2,91.4V44.7l-3.8,1.9v25.1l0,0c-0.2,0.7,0.3,1.8-0.5,2.2c-0.2,0-0.4,0-0.5-0.2c-1.6-6.1-2.3-12.5-2.6-19
		l0,0l-0.1-5.7l-3.6,2.7v1.5l0,0c0.2,6.1,0.6,12,1.8,17.7l0,0l-1.4,1.6l0,0c-0.6-0.8-0.9-1.6-1.3-2.4c-1.8-4.8-2.5-10.1-2.8-15.6
		l0,0l-3.1,2.3l0,0c0.3,8.3,1.9,16.1,6.9,22.4c1-1.1,1.9-2.2,2.9-3.3c0.5,2.2,1.2,4.4,2.1,6.5C63.7,85.6,65.3,88.9,68.2,91.4
		L68.2,91.4z"/>
	<path class="st0" d="M97.1,50.8l-5.6-1.4l-1-3.8l-5.8-1.4l-1.2-4.2L69.9,37l-13.3,3.1l-1.2,4.2l-5.8,1.4l0,0
		c-0.4,1.3-0.7,2.6-1.1,3.9l0,0l-5.6,1.4l0,0c-0.4,12,2.9,22.5,8.9,31.9c4.4,6.7,10.9,13.9,18.1,17.4c4.9-2.3,9.2-6.2,13.1-10.6
		C92.4,78.6,97.6,65.8,97.1,50.8L97.1,50.8L97.1,50.8L97.1,50.8z M80.5,87.1C77.4,90.5,73.9,94,70,96c-3.7-1.9-7-5.1-10-8.3
		c-7.7-9-12.8-19.1-13.7-30.9c-0.1-1-0.1-1.9-0.1-2.9l0,0l4.8-1.1l1.1-3.9l5.9-1.4l0-0.1l1.1-4.1l10.7-2.5l11,2.5l1.1,4.2l6,1.4
		l1,3.9l4.8,1.1l0,0C93.6,66.7,88.5,77.5,80.5,87.1L80.5,87.1L80.5,87.1L80.5,87.1z"/>
	<path class="st0" d="M82.3,99.7c0.6,0,1.1-0.4,1.1-1.1c0-0.8-0.5-1.2-1.5-1.2l0,0h-1.5v4.1H81v-1.7h0.6l1.1,1.7h0.7L82.3,99.7
		L82.3,99.7L82.3,99.7z M81,99.1v-1.2h0.8l0,0c0.4,0,0.8,0.1,0.8,0.6c0,0.6-0.4,0.6-0.9,0.6l0,0H81L81,99.1L81,99.1z"/>
	<path class="st0" d="M81.8,96.1c-1.9,0-3.5,1.6-3.5,3.5s1.6,3.5,3.5,3.5c1.9,0,3.5-1.6,3.5-3.5C85.2,97.6,83.7,96.1,81.8,96.1
		L81.8,96.1L81.8,96.1L81.8,96.1z M81.8,102.7c-1.7,0-3.1-1.4-3.1-3.1c0-1.7,1.4-3.1,3.1-3.1c1.7,0,3.1,1.4,3.1,3.1
		C84.9,101.3,83.5,102.7,81.8,102.7L81.8,102.7L81.8,102.7L81.8,102.7z"/>
</g>
</svg>
